{"glyphs":{":":{"x_min":0,"x_max":241,"ha":241,"o":"m 143 116 q 145 108 146 102 q 146 95 148 87 q 145 77 142 68 q 139 59 136 50 q 133 43 132 41 q 131 39 131 38 q 131 37 131 36 q 132 34 132 27 l 128 16 q 123 9 116 5 q 109 1 103 -2 q 101 -4 97 -5 q 93 -7 91 -9 l 88 -21 l 75 -22 q 59 -26 47 -26 l 35 -26 q 23 -16 17 -10 q 10 -4 2 1 q -8 15 -9 21 q -10 27 -12 33 q -14 46 -17 50 l -30 63 l -19 72 l -29 91 q -18 100 -12 104 q -6 107 -2 112 q 2 116 7 123 q 12 130 22 146 l 31 158 l 44 151 q 48 148 61 146 q 74 144 84 142 q 101 137 115 134 q 130 132 139 124 z m 196 390 q 194 375 193 368 q 191 361 191 355 q 191 349 193 340 q 194 331 198 312 l 201 297 l 187 294 q 182 292 170 284 q 159 276 150 271 q 137 264 124 254 q 111 245 99 244 q 83 252 77 256 q 71 260 65 265 q 61 274 57 283 q 53 292 48 301 q 45 308 44 310 q 43 312 42 312 q 42 312 41 313 q 39 314 34 319 l 28 331 q 27 346 34 361 q 36 369 38 375 l 31 386 l 39 396 q 46 406 49 411 q 52 415 57 420 l 65 428 q 81 429 90 429 q 100 430 109 433 q 126 429 131 425 q 137 422 142 418 q 152 410 157 410 l 177 410 l 175 395 z"},"$":{"x_min":0,"x_max":493,"ha":493,"o":"m 404 299 q 406 278 408 262 q 409 245 401 229 q 387 193 357 167 q 328 141 291 121 q 289 114 287 107 q 285 101 286 98 q 275 89 271 78 q 266 67 264 57 q 262 46 261 35 q 260 24 256 16 q 248 12 241 6 q 234 0 228 -6 q 222 -12 214 -17 q 206 -21 195 -23 q 176 -17 165 -9 q 153 -2 138 6 q 127 21 125 38 q 124 56 128 72 q 119 73 110 74 q 102 74 94 73 q 88 78 83 84 q 77 90 75 98 q 71 98 71 102 q 71 105 67 106 q 73 114 73 115 q 72 116 70 117 q 68 118 66 120 q 64 121 65 124 q 69 130 68 139 q 67 147 66 157 q 65 166 67 174 q 69 183 80 188 q 111 185 139 190 q 166 195 191 205 q 216 215 238 227 q 261 238 282 247 q 287 262 299 269 q 312 276 316 291 q 317 297 313 298 q 309 299 309 304 q 282 315 260 322 q 237 328 223 336 q 213 331 205 333 q 196 336 183 338 q 151 340 123 344 q 95 348 67 358 q 65 363 63 366 q 62 369 54 368 q 49 375 43 381 q 37 387 32 395 q 34 404 35 411 q 36 418 30 425 q 33 436 35 442 q 37 449 35 460 q 42 478 56 490 q 69 503 86 512 q 104 521 122 526 q 140 531 155 536 q 181 548 210 557 q 240 565 271 574 q 278 598 286 624 q 293 649 303 672 q 312 695 325 712 q 338 729 356 733 q 382 705 395 674 q 407 643 415 600 q 436 600 457 597 q 479 595 501 588 q 504 580 509 573 q 515 565 521 558 q 526 551 531 543 q 535 536 536 528 q 545 521 550 512 q 556 504 553 489 q 544 483 535 478 q 526 472 517 467 q 482 475 449 473 q 415 471 387 469 q 378 477 367 476 q 355 476 343 473 q 331 470 319 466 q 307 463 296 465 q 287 458 274 456 q 261 453 246 452 q 245 447 248 446 q 250 445 248 440 q 253 435 262 432 q 271 430 281 428 q 290 426 297 422 q 305 418 308 409 q 320 409 331 403 q 341 397 347 389 q 354 381 357 371 q 360 361 359 354 q 362 348 366 349 q 369 351 374 346 q 377 335 388 324 q 398 312 404 299 z"},"?":{"x_min":0,"x_max":557,"ha":557,"o":"m 590 673 q 597 665 602 657 q 606 648 616 645 q 611 620 613 598 q 615 576 616 551 q 603 477 556 432 q 509 388 447 371 q 447 361 441 357 q 422 354 412 348 q 402 341 394 333 q 386 325 375 318 q 363 311 340 307 q 335 296 327 293 q 318 290 310 289 q 302 287 294 284 q 286 280 282 268 l 227 216 q 203 222 186 221 q 168 221 156 223 q 145 225 138 234 q 132 244 130 271 q 131 281 137 285 q 144 288 146 296 q 146 317 152 328 q 158 338 168 345 q 178 352 188 360 q 199 368 207 386 q 223 393 242 408 q 261 423 276 438 q 301 450 318 460 q 335 470 350 479 q 364 489 379 501 q 394 513 414 530 q 409 543 396 544 q 383 546 366 544 q 338 553 311 555 q 284 558 248 560 q 234 559 228 557 q 222 556 209 558 q 203 553 196 550 q 188 547 180 544 q 172 542 164 540 q 155 537 148 533 q 129 538 117 552 q 105 565 89 573 q 87 580 92 582 q 97 584 95 594 q 85 599 85 602 q 86 604 79 609 q 83 625 90 636 q 98 647 106 658 q 115 668 124 678 q 133 688 140 700 q 155 704 167 712 q 178 721 188 730 q 241 736 291 734 q 341 731 390 724 q 439 716 489 702 q 538 688 590 673 z m 215 111 q 213 97 211 90 q 210 83 210 77 q 210 71 211 62 q 213 54 217 35 l 220 20 l 206 17 q 201 16 190 8 q 179 0 170 -5 q 156 -13 144 -22 q 132 -31 119 -31 q 104 -23 99 -20 q 93 -16 87 -12 q 82 -3 78 6 q 74 15 69 23 q 66 30 65 32 q 64 34 64 35 q 63 36 62 37 q 61 37 56 42 l 50 54 q 49 62 51 69 q 54 76 56 83 q 57 86 58 90 q 60 95 60 97 l 54 106 l 62 117 q 67 128 70 132 q 73 136 78 141 l 87 147 q 113 148 130 152 q 146 149 151 146 q 156 143 161 139 q 172 131 177 131 l 196 131 l 194 116 z"},"<":{"x_min":0,"x_max":625,"ha":625,"o":"m 572 467 q 583 459 588 456 q 594 452 597 450 q 601 448 604 445 q 607 442 615 437 q 610 426 610 420 q 610 414 611 409 q 612 403 614 397 q 615 392 614 382 q 561 348 519 328 q 478 308 439 293 q 400 278 359 265 q 317 252 263 230 q 285 217 321 207 q 356 196 392 183 q 428 170 457 150 q 486 131 496 100 q 510 99 520 84 q 530 69 528 50 q 519 44 510 37 q 502 29 489 25 q 479 23 461 27 q 444 31 424 38 q 404 45 382 53 q 360 61 341 65 q 321 70 298 74 q 275 78 256 86 q 247 90 241 95 q 234 101 226 103 q 208 105 188 114 q 168 122 147 132 q 127 142 107 151 q 87 161 69 169 q 70 175 57 184 q 43 192 27 193 q 27 205 18 214 q 9 224 4 235 q -7 263 12 287 q 30 312 67 316 q 79 312 85 313 q 92 313 103 309 q 120 320 145 332 q 170 343 193 338 q 196 346 205 346 q 213 346 215 354 q 255 361 293 376 q 331 391 367 408 q 403 425 437 442 q 471 459 502 473 q 516 469 527 473 q 539 478 552 477 q 549 474 551 473 q 553 472 557 471 q 561 471 565 470 q 569 470 572 467 z"},"'":{"x_min":0,"x_max":266,"ha":266,"o":"m 248 722 q 260 712 271 704 q 281 696 290 688 q 299 679 303 667 q 308 656 306 640 q 298 631 287 607 q 276 583 261 538 q 253 516 246 477 q 238 438 228 397 q 218 355 203 319 q 188 282 166 266 q 157 269 147 271 q 138 272 130 276 q 122 280 118 288 q 113 295 114 309 q 92 321 85 339 q 79 357 80 377 q 81 397 84 417 q 88 438 85 454 q 95 494 106 541 q 117 587 126 630 q 135 639 140 652 q 146 665 149 681 q 153 696 158 711 q 162 727 170 740 q 175 735 187 736 q 198 736 201 742 q 207 732 223 726 q 238 720 248 722 z"},"=":{"x_min":0,"x_max":587,"ha":587,"o":"m 533 400 q 547 398 552 394 q 557 389 557 382 q 557 375 554 367 q 551 358 548 350 q 520 334 475 328 q 431 321 384 319 q 337 316 293 317 q 250 317 224 314 q 171 309 141 303 q 110 298 98 293 q 80 294 71 300 q 62 306 57 314 q 53 322 51 333 q 50 343 46 354 q 53 362 55 376 q 57 390 50 396 q 58 398 64 408 q 70 417 68 422 q 86 426 104 427 q 122 429 140 430 q 157 431 173 433 q 189 435 203 440 q 251 442 304 444 q 356 445 402 447 q 417 442 439 442 q 461 441 481 439 q 502 437 517 429 q 532 421 533 400 z m 477 212 q 494 208 497 200 q 500 192 495 183 q 490 174 480 164 q 470 154 461 146 q 452 148 442 143 q 433 138 425 132 q 397 135 369 132 q 340 130 315 128 q 311 128 310 124 q 310 120 307 119 q 278 128 246 126 q 214 124 179 118 q 144 112 107 106 q 71 100 35 99 q 24 106 19 118 q 14 129 12 142 q 10 155 10 169 q 11 183 11 196 q 14 207 21 213 q 29 219 37 224 q 62 225 81 227 q 101 229 119 230 q 137 232 155 234 q 173 236 194 237 q 207 240 238 243 q 265 245 313 247 q 361 249 443 249 q 442 240 449 236 q 455 232 462 230 q 469 228 474 224 q 479 221 477 212 z"},"a":{"x_min":0,"x_max":581,"ha":581,"o":"m 517 82 q 511 65 500 48 q 488 31 473 18 q 458 5 439 -4 q 421 -13 400 -14 q 388 -11 383 -7 q 379 -4 374 -1 q 371 1 369 2 q 366 4 364 5 l 353 10 l 356 22 q 358 30 355 35 q 353 39 344 47 q 341 50 338 53 q 335 56 333 59 l 316 77 l 343 84 q 367 91 375 102 q 384 112 382 138 q 362 142 349 139 q 336 136 322 132 q 305 127 287 124 q 269 120 247 120 q 239 120 232 121 q 226 121 218 122 l 208 124 q 206 135 204 136 q 202 138 200 140 q 195 145 190 153 q 185 161 188 174 q 183 183 182 191 q 176 180 173 167 l 169 157 l 159 155 q 157 154 156 151 q 155 147 155 146 l 150 129 q 148 127 146 125 q 145 124 143 122 q 141 113 138 104 q 135 96 132 88 q 127 75 124 63 q 120 51 121 39 l 117 28 q 112 22 106 19 q 101 16 95 13 q 93 11 89 9 q 86 8 84 7 l 81 -4 l 69 -6 q 59 -8 54 -9 q 50 -10 44 -10 l 34 -9 q 23 0 18 5 q 12 11 4 16 q -5 27 -6 33 q -7 39 -8 44 q -10 50 -10 54 q -11 58 -13 60 l -25 71 l -15 80 l -14 97 q 6 146 28 192 q 50 238 73 286 q 81 302 88 317 q 96 333 104 349 q 103 352 103 355 q 103 359 104 364 q 115 381 122 394 q 129 407 136 421 q 144 438 152 453 q 160 469 173 485 l 188 492 q 191 493 195 495 q 199 496 204 496 l 219 494 q 246 507 267 530 q 287 553 309 585 l 318 599 l 331 591 q 336 588 345 585 q 354 583 363 580 q 381 576 396 571 q 412 566 422 557 q 428 541 429 533 q 430 525 432 518 q 435 501 437 484 q 439 468 440 447 q 445 431 449 415 q 452 398 455 382 q 460 358 465 336 q 470 314 478 295 q 485 295 487 294 q 492 296 498 297 q 503 298 510 299 l 521 300 l 524 290 q 525 285 534 280 q 547 279 553 275 q 559 271 563 266 q 567 262 571 260 l 586 254 l 578 239 q 568 222 550 206 q 532 189 510 179 q 511 173 511 167 q 512 162 514 156 q 517 140 519 122 q 521 104 519 86 z m 234 251 q 264 253 288 255 q 312 258 341 264 q 334 293 326 325 q 318 356 310 388 l 304 378 q 284 357 266 332 q 248 307 235 284 q 229 275 224 267 q 218 258 213 249 q 219 250 224 250 q 229 250 234 251 z"},"L":{"x_min":0,"x_max":633,"ha":633,"o":"m 56 36 q 52 40 49 45 q 46 51 44 60 q 30 76 22 98 q 15 119 12 142 q 9 165 11 188 q 13 212 18 232 q 21 242 22 253 q 27 271 32 290 q 37 308 47 319 q 43 330 48 343 q 53 355 58 366 q 60 369 61 372 q 62 374 62 376 q 74 410 85 442 q 97 474 107 503 q 127 557 145 608 q 163 660 178 719 q 186 725 191 727 q 193 728 196 729 q 199 729 203 729 q 224 719 251 709 q 279 700 299 700 l 315 686 q 328 671 337 655 q 347 639 343 613 q 337 604 333 603 q 327 580 320 563 q 313 546 307 530 q 299 513 292 495 q 285 478 280 452 q 274 445 273 440 q 271 436 270 431 q 268 425 265 418 q 262 412 256 407 q 252 377 244 358 q 236 339 229 320 q 215 286 203 252 q 191 219 189 176 q 201 179 211 179 q 224 179 235 175 q 271 192 312 196 q 354 200 395 201 q 429 201 458 204 q 468 197 471 197 q 474 196 480 196 q 483 196 486 196 q 489 196 494 195 q 508 182 521 176 q 533 171 548 166 q 561 161 573 156 q 585 150 597 142 l 605 92 q 613 81 612 77 q 612 69 608 63 l 610 51 q 592 47 586 42 q 580 38 573 31 q 562 30 553 30 q 533 30 513 24 q 483 35 448 35 q 435 35 420 34 q 406 33 393 31 q 378 29 363 28 q 349 26 334 26 q 322 24 317 23 q 312 22 308 21 q 274 10 236 -1 q 197 -12 158 -12 q 101 -12 65 18 q 62 26 60 29 q 58 32 56 36 z"},"3":{"x_min":0,"x_max":562,"ha":562,"o":"m 35 664 q 89 675 142 686 q 194 697 248 705 q 301 713 356 716 q 412 719 474 713 q 498 688 517 658 q 535 628 552 596 q 550 589 549 582 q 549 575 547 567 q 542 555 534 544 q 525 534 521 521 q 496 507 474 491 q 452 476 431 459 q 413 451 394 445 q 375 438 365 421 q 397 407 422 388 q 446 368 465 344 q 483 319 497 291 q 511 263 521 232 q 520 218 517 202 q 514 187 517 176 q 510 155 499 143 q 487 131 477 110 q 442 96 421 69 q 411 69 411 73 q 381 53 341 39 q 301 24 255 17 q 209 9 158 8 q 107 7 57 12 q 53 15 50 19 q 47 22 38 21 q 34 31 28 39 q 21 46 18 56 q 27 71 31 92 q 34 112 39 131 q 43 150 51 166 q 59 181 77 188 q 85 188 86 183 q 87 177 92 175 q 130 175 168 176 q 206 178 240 183 q 274 188 304 199 q 334 210 355 229 q 326 253 287 265 q 248 277 211 289 q 175 301 146 319 q 118 337 109 372 q 114 395 116 412 q 118 430 121 444 q 124 459 130 472 q 137 485 151 498 q 146 501 137 500 q 128 498 117 495 q 106 491 96 487 q 86 482 79 479 q 59 484 38 486 q 17 487 -1 498 q -3 509 -6 522 q -9 535 -10 549 q -11 562 -8 576 q -5 590 6 602 q 4 608 3 615 q 2 622 -1 627 q 10 636 22 645 q 34 653 35 664 z"},";":{"x_min":0,"x_max":245,"ha":245,"o":"m 39 146 q 45 141 59 134 q 73 128 88 122 q 104 115 118 110 q 132 105 138 104 q 148 85 149 70 q 150 55 154 38 q 149 33 148 22 q 146 11 146 6 q 145 -2 142 -3 q 140 -5 138 -12 q 137 -14 138 -18 q 140 -21 140 -23 q 138 -28 134 -29 q 131 -29 129 -34 q 125 -45 124 -47 q 123 -50 122 -50 q 121 -51 120 -52 q 118 -54 114 -63 q 107 -78 97 -92 q 87 -106 85 -120 q 78 -126 69 -134 q 61 -142 51 -150 q 42 -158 32 -165 q 22 -172 14 -175 q 5 -171 -14 -162 q -33 -153 -50 -143 q -67 -132 -76 -119 q -85 -106 -74 -96 q -57 -77 -43 -51 q -30 -25 -21 4 q -11 34 -3 66 q 4 98 11 127 q 15 123 19 125 q 22 126 26 129 q 30 133 33 138 q 36 143 39 146 z m 200 390 q 198 375 197 368 q 195 361 195 355 q 194 349 196 340 q 197 331 201 312 l 205 297 l 190 294 q 186 292 174 284 q 162 276 154 271 q 140 264 127 254 q 115 245 102 244 q 87 252 81 256 q 75 260 69 265 q 60 281 52 301 q 48 308 47 310 q 47 312 46 312 q 45 312 43 313 q 42 314 37 319 l 32 331 q 30 339 33 347 q 35 354 37 361 q 41 369 41 375 l 35 386 l 43 396 q 50 406 53 411 q 56 415 61 420 l 69 428 q 85 429 94 429 q 103 430 112 433 l 122 432 q 130 429 135 425 q 141 422 146 418 q 156 410 161 410 l 181 410 l 179 395 z"},"J":{"x_min":0,"x_max":669,"ha":669,"o":"m 318 18 q 304 16 291 13 q 277 10 264 6 q 258 4 252 3 q 246 2 239 0 q 222 4 206 6 q 189 8 177 8 l 162 12 q 150 16 145 18 q 139 21 133 22 q 128 23 121 24 q 113 25 100 27 q 83 21 67 21 q 57 21 45 24 q 33 27 21 38 q 10 48 -1 66 q -12 84 -20 112 q -17 135 -13 151 q -9 168 -5 178 l 3 187 q 21 193 43 193 q 64 193 85 187 q 105 180 126 172 q 135 168 139 166 q 143 164 145 163 q 146 162 150 162 q 153 162 162 162 q 167 162 171 163 q 176 163 181 164 l 192 163 q 199 159 209 159 q 216 159 223 161 q 230 163 238 165 q 246 168 252 169 q 258 170 263 172 l 272 181 q 282 185 288 189 q 293 194 297 201 q 301 207 304 214 q 308 221 313 229 q 318 234 323 240 q 327 246 332 251 l 332 261 q 348 297 359 334 q 371 371 380 408 q 389 445 395 480 q 401 516 406 544 q 403 544 400 544 q 397 545 396 545 q 366 545 348 544 q 329 543 313 541 q 298 539 281 536 q 264 532 237 527 l 221 524 q 202 516 185 508 q 168 501 149 501 q 120 501 99 524 q 76 538 73 563 q 68 572 69 580 q 65 594 65 605 q 64 616 64 626 l 65 643 l 80 643 q 86 648 88 651 q 91 654 92 658 l 95 668 l 104 669 q 125 672 146 676 q 168 680 190 685 q 213 688 229 691 q 245 694 260 696 q 274 697 290 698 q 306 698 326 698 q 334 698 340 698 q 347 697 354 697 q 357 702 361 703 q 365 704 367 704 q 374 703 377 702 q 381 701 383 700 q 416 706 444 708 q 472 709 494 709 q 505 709 516 709 q 526 709 536 708 l 573 708 l 600 708 q 604 709 609 709 q 613 709 618 709 q 628 709 633 709 q 639 709 643 708 q 646 708 650 708 q 654 707 661 706 q 678 703 691 701 q 705 699 719 699 l 737 700 l 740 688 l 749 676 q 752 670 757 665 q 762 660 768 655 q 779 645 791 628 q 802 612 799 582 l 790 570 q 786 568 783 565 q 779 562 775 559 l 766 550 q 753 549 744 548 q 735 548 725 548 q 707 548 689 549 q 671 550 651 551 q 641 552 635 552 q 629 552 624 552 q 619 552 613 551 q 606 551 597 551 q 587 551 583 551 q 578 551 570 550 q 568 519 563 496 q 558 473 550 447 q 531 352 504 267 q 478 182 444 113 q 413 80 385 54 q 356 28 321 18 z"},"V":{"x_min":0,"x_max":584,"ha":584,"o":"m 77 367 q 72 395 74 424 q 76 453 76 480 q 76 507 73 537 q 69 566 67 594 q 64 621 65 644 q 65 667 71 680 q 79 694 91 703 q 103 711 113 722 q 126 720 136 714 q 146 709 154 701 q 161 692 165 684 q 168 675 166 666 q 190 651 206 626 q 221 602 229 572 q 237 542 241 509 q 244 476 247 443 q 249 411 251 382 q 254 354 261 332 q 304 395 333 443 q 363 491 394 536 q 424 580 461 626 q 499 672 558 729 q 570 728 577 725 q 584 722 591 719 q 598 716 605 714 q 613 713 627 715 q 632 703 634 698 q 637 692 639 688 q 641 683 644 675 q 646 667 652 651 q 655 647 655 641 q 654 635 653 630 q 652 625 653 622 q 653 619 659 622 q 655 605 646 592 q 638 579 639 561 q 612 525 580 488 q 548 451 516 411 q 483 370 454 327 q 424 283 403 234 q 397 234 395 231 q 392 229 389 225 q 387 221 384 217 q 382 213 376 213 q 374 182 353 154 q 332 126 311 106 q 312 99 312 94 q 312 89 312 84 q 311 79 310 74 q 310 68 311 61 q 302 37 288 21 q 273 6 257 -2 q 240 -10 223 -8 q 205 -7 189 4 q 183 8 178 15 q 173 21 167 28 q 162 34 157 40 q 151 45 144 47 q 146 57 144 67 q 143 78 140 87 q 137 96 133 102 q 129 107 125 107 q 121 132 115 161 q 108 189 102 218 q 96 246 92 273 q 88 301 89 324 q 90 336 84 345 q 79 354 77 367 z"},"\"":{"x_min":0,"x_max":492,"ha":492,"o":"m 248 722 q 260 712 271 704 q 281 696 290 688 q 299 679 303 667 q 308 656 306 640 q 298 631 287 607 q 276 583 261 538 q 253 516 246 477 q 238 438 228 397 q 218 355 203 319 q 188 282 166 266 q 157 269 147 271 q 138 272 130 276 q 122 280 118 288 q 113 295 114 309 q 92 321 85 339 q 79 357 80 377 q 81 397 84 417 q 88 438 85 454 q 95 494 106 541 q 117 587 126 630 q 135 639 140 652 q 146 665 149 681 q 153 696 158 711 q 162 727 170 740 q 175 735 187 736 q 198 736 201 742 q 207 732 223 726 q 238 720 248 722 z m 427 741 q 441 735 457 729 q 473 722 487 714 q 502 706 514 695 q 525 685 532 670 q 524 636 511 604 q 497 571 484 540 q 472 509 464 479 q 456 448 461 417 q 459 414 455 416 q 451 417 449 412 q 443 390 436 363 q 428 336 427 308 q 418 303 410 296 q 402 290 403 280 q 393 275 380 270 q 367 265 356 264 q 345 264 336 270 q 327 276 326 296 q 316 298 313 305 q 311 312 309 319 q 307 327 303 335 q 300 343 290 347 q 304 426 314 472 q 325 519 333 543 q 342 571 348 582 q 353 603 358 619 q 363 636 369 653 q 374 670 379 688 q 385 706 391 729 q 398 734 406 739 q 413 744 427 741 z"},"7":{"x_min":0,"x_max":576,"ha":576,"o":"m 626 365 q 627 360 622 357 q 617 354 613 351 q 608 348 606 344 q 604 341 609 337 q 616 339 618 335 q 620 332 625 334 q 624 332 622 327 q 619 321 625 321 q 622 312 615 305 q 608 299 601 293 q 594 288 586 283 q 578 277 573 270 q 539 265 524 262 q 509 260 497 257 q 484 255 469 252 q 453 250 420 244 q 415 238 410 234 q 404 230 399 225 q 394 220 390 213 q 387 206 387 196 q 375 188 367 177 q 358 165 351 152 q 344 140 336 127 q 328 114 318 104 q 319 99 322 96 q 325 94 324 88 q 312 82 307 68 q 302 54 297 39 q 292 24 283 12 q 274 0 255 -1 q 242 3 233 4 q 225 6 216 6 q 208 6 199 5 q 190 5 179 5 q 179 13 176 21 q 174 30 183 34 q 178 47 164 50 q 165 92 179 134 q 193 176 211 208 q 191 205 181 204 q 170 202 161 201 q 151 200 141 201 q 131 201 113 201 q 113 213 104 215 q 94 217 88 224 q 86 234 78 241 q 69 248 62 253 q 62 264 71 263 q 69 272 66 282 q 62 292 75 299 q 74 303 70 303 q 65 304 69 312 q 82 343 105 354 q 129 365 157 369 q 186 372 216 374 q 246 375 273 389 q 291 385 305 388 q 318 391 334 395 q 336 413 345 431 q 354 448 358 467 q 359 477 354 481 q 350 486 353 499 q 334 517 313 523 q 293 530 271 533 q 248 536 224 537 q 199 538 175 544 q 149 545 130 542 q 111 540 95 537 q 78 534 62 533 q 46 532 25 536 q 28 542 28 546 q 27 551 25 555 q 22 559 18 564 q 14 569 10 577 q 13 592 17 618 q 21 645 19 667 q 25 668 27 670 q 29 672 30 675 q 30 678 31 681 q 31 685 35 688 q 45 688 52 697 q 60 706 70 711 q 91 712 99 713 q 107 714 113 715 q 118 717 125 719 q 131 721 147 724 q 151 725 153 723 q 154 722 155 720 q 156 719 158 717 q 159 716 163 717 q 182 719 194 719 q 207 720 218 719 q 229 719 240 716 q 250 714 265 710 q 271 710 277 710 q 283 711 289 711 q 294 711 297 709 q 301 707 303 700 q 321 702 335 700 q 350 698 363 694 q 376 689 390 683 q 404 677 424 671 q 438 646 452 622 q 466 599 491 585 q 492 580 490 579 q 488 577 488 572 q 480 567 482 566 q 484 565 487 565 q 490 565 493 565 q 496 564 497 562 q 497 559 495 557 q 492 556 491 553 q 497 543 498 526 q 498 510 496 490 q 493 470 491 448 q 488 427 490 408 q 516 403 525 402 q 534 400 541 400 q 547 400 558 401 q 569 401 599 400 q 600 386 609 379 q 618 373 626 365 z"},"S":{"x_min":0,"x_max":576,"ha":576,"o":"m 13 440 q 16 455 17 464 q 18 474 10 484 q 14 500 16 509 q 19 518 17 533 q 25 559 43 576 q 62 594 83 606 q 104 618 128 626 q 151 635 172 641 q 172 645 168 645 q 164 645 166 649 q 219 659 272 678 q 325 696 381 711 q 437 726 495 729 q 554 732 618 714 q 622 702 629 691 q 636 681 643 670 q 650 660 656 650 q 662 641 663 630 q 675 619 682 607 q 689 595 685 574 q 674 566 662 559 q 650 551 638 544 q 594 555 550 552 q 506 549 471 545 q 460 557 445 556 q 431 556 415 551 q 398 547 383 542 q 367 538 354 540 q 343 530 325 527 q 308 523 288 521 q 287 517 290 515 q 293 513 291 507 q 298 498 310 495 q 321 491 333 488 q 346 485 355 480 q 365 475 368 463 q 386 462 398 454 q 411 445 420 434 q 429 422 433 409 q 437 396 436 385 q 439 375 444 377 q 448 379 454 372 q 458 357 472 341 q 486 325 494 307 q 496 277 498 254 q 499 230 489 208 q 473 165 441 131 q 410 97 371 71 q 331 45 287 26 q 243 7 200 -6 q 196 -5 191 -6 q 186 -7 188 0 q 180 -8 168 -10 q 157 -12 144 -11 q 131 -11 118 -10 q 104 -9 92 -11 q 84 -3 78 5 q 71 13 67 23 q 62 24 63 30 q 63 35 59 35 q 59 39 60 41 q 61 43 62 45 q 65 48 65 49 q 64 51 62 52 q 60 54 57 56 q 55 58 56 61 q 61 69 59 82 q 58 94 57 106 q 56 119 59 130 q 62 142 75 149 q 115 146 151 153 q 187 161 218 175 q 250 188 279 205 q 308 221 335 234 q 338 244 344 251 q 351 258 357 264 q 364 271 370 278 q 376 285 379 296 q 380 300 379 302 q 378 304 376 305 q 374 307 372 309 q 370 311 370 314 q 367 315 365 316 q 362 317 360 317 q 335 330 307 339 q 278 348 259 358 q 247 351 235 354 q 224 358 207 362 q 166 364 129 370 q 93 376 59 391 q 57 396 54 401 q 51 405 40 403 q 33 413 26 421 q 19 430 13 440 z"},"}":{"x_min":0,"x_max":481,"ha":481,"o":"m 441 395 q 441 381 449 371 q 456 360 459 348 q 467 315 453 289 q 439 262 411 256 q 402 261 397 260 q 393 259 385 265 q 371 251 353 238 q 335 226 316 230 q 314 222 309 222 q 303 222 301 212 q 286 208 275 200 q 265 191 251 184 q 240 148 231 121 q 223 93 214 65 q 206 38 196 8 q 187 -21 173 -61 q 172 -72 165 -84 q 157 -97 149 -106 q 141 -104 133 -110 q 126 -116 119 -124 q 93 -120 66 -123 q 39 -126 17 -129 q 13 -129 13 -133 q 14 -138 11 -139 q -18 -129 -48 -131 q -78 -134 -110 -141 q -142 -147 -174 -156 q -207 -164 -240 -165 q -253 -156 -261 -143 q -269 -130 -274 -115 q -279 -100 -283 -83 q -287 -67 -290 -53 q -290 -39 -284 -33 q -278 -27 -272 -21 q -250 -20 -232 -17 q -214 -15 -197 -12 q -181 -10 -164 -7 q -147 -5 -127 -5 q -120 -1 -102 1 q -84 4 -61 6 q -37 8 -11 9 q 15 10 38 10 q 50 51 64 90 q 78 130 89 169 q 96 193 103 219 q 109 245 116 267 q 119 271 132 278 q 146 285 166 295 q 187 306 212 318 q 237 331 265 348 q 255 356 237 367 q 219 377 201 387 q 184 397 169 406 q 155 415 154 421 q 152 426 155 437 q 158 447 162 458 q 166 470 169 479 q 173 487 173 489 q 182 522 191 552 q 201 581 210 612 q 220 643 228 677 q 236 711 243 754 q 205 758 172 757 q 140 757 120 754 q 73 746 48 740 q 22 733 13 729 q -4 729 -14 736 q -23 742 -29 752 q -35 762 -40 773 q -44 785 -50 798 q -46 807 -48 823 q -50 839 -58 847 q -51 849 -47 860 q -44 871 -47 876 q -32 881 -17 882 q -1 884 15 885 q 30 887 44 889 q 59 892 69 898 q 112 900 159 903 q 205 906 246 908 q 261 903 280 903 q 300 902 319 899 q 338 896 354 888 q 370 879 376 855 q 389 854 394 848 q 399 843 401 834 q 403 826 403 817 q 402 808 402 798 q 394 771 388 744 q 383 716 375 684 q 368 652 360 618 q 353 584 344 551 q 340 536 335 516 q 330 495 326 481 q 348 468 369 451 q 391 435 410 423 q 409 415 419 406 q 430 396 441 395 z"},"Z":{"x_min":0,"x_max":664,"ha":664,"o":"m -8 86 q -11 115 -9 139 q -8 162 -2 184 q 3 205 12 225 q 21 244 33 267 q 47 271 58 280 q 68 288 78 296 q 88 305 97 311 q 106 317 115 318 l 125 324 q 145 347 173 366 q 201 385 231 402 q 257 417 281 432 q 306 447 326 467 q 336 466 343 471 q 348 478 347 485 q 350 487 352 490 q 354 492 357 494 q 365 501 379 508 q 394 516 398 528 l 424 553 l 389 552 q 362 552 333 549 q 303 546 281 544 q 264 542 246 541 q 228 540 205 539 q 187 551 173 569 q 160 588 153 609 q 146 631 145 654 q 144 678 150 699 q 158 701 165 704 q 171 706 177 709 q 188 710 191 709 q 194 708 199 708 q 258 718 295 718 q 336 718 369 708 q 410 708 453 711 q 495 714 539 706 q 570 716 602 711 q 633 707 655 684 q 657 664 666 654 q 675 644 689 639 q 698 604 691 579 q 684 554 666 534 q 648 514 624 498 q 600 482 576 468 q 569 457 560 450 q 550 443 541 436 q 503 385 453 349 q 402 313 351 279 q 313 254 277 229 q 240 203 206 174 l 193 163 l 204 151 q 218 138 237 138 q 248 138 258 141 q 269 144 277 147 q 286 150 293 153 q 301 155 306 155 l 316 153 q 331 161 340 165 q 350 168 359 171 q 367 173 376 176 q 386 179 395 184 q 420 184 443 191 q 467 198 489 207 q 503 212 516 217 q 529 222 543 226 q 548 219 554 214 q 561 210 566 207 q 575 202 579 199 q 583 195 584 189 l 588 157 l 608 180 q 623 166 624 152 q 625 138 621 115 q 583 77 527 56 q 471 34 408 16 q 395 12 382 8 q 369 5 355 0 l 356 21 l 331 4 q 326 0 323 -3 q 320 -7 317 -11 q 287 -18 267 -21 q 247 -25 229 -29 q 210 -34 193 -37 q 176 -40 155 -40 q 148 -40 142 -40 q 136 -39 129 -38 q 123 -36 115 -34 l 102 -9 l 83 -22 q 72 -14 59 -4 q 47 6 37 16 q 27 25 26 35 l 25 47 l 14 50 q 12 52 10 60 q 8 65 4 73 q 0 81 -8 86 z"},"x":{"x_min":0,"x_max":507,"ha":507,"o":"m 339 25 q 324 74 296 119 q 269 164 243 196 q 203 166 167 129 q 132 93 103 51 q 101 30 98 17 q 95 4 87 -5 q 80 -14 69 -20 q 58 -26 40 -33 q 8 -10 -7 25 q -21 60 -11 94 q -10 118 1 142 q 13 165 29 186 q 45 207 63 226 q 82 245 99 262 q 102 271 110 279 q 118 286 127 293 q 137 300 146 308 q 155 315 161 326 q 154 349 135 372 q 115 395 99 419 q 97 424 91 422 q 86 420 84 423 q 86 436 79 450 q 71 465 61 476 q 63 486 67 501 q 71 517 65 535 q 65 543 68 550 q 71 558 74 564 q 77 570 79 577 q 81 583 78 589 q 91 591 101 588 q 110 585 119 581 q 128 577 135 575 q 143 573 150 576 q 149 571 150 569 q 151 567 153 566 q 155 565 157 564 q 159 562 159 560 q 175 555 193 539 q 212 522 229 503 q 246 483 260 464 q 273 444 280 435 q 304 449 331 469 q 358 489 388 511 q 417 532 447 551 q 477 570 505 582 q 521 574 531 563 q 540 552 546 540 q 553 527 558 514 q 562 501 571 491 q 563 475 554 463 q 545 452 541 438 q 521 429 492 411 q 467 396 430 369 q 394 343 342 299 q 354 285 361 272 q 369 260 374 251 q 379 240 383 231 q 392 225 397 216 q 403 207 409 198 q 414 188 421 180 q 428 172 438 167 q 444 138 455 115 q 466 92 465 67 q 458 45 445 30 q 432 16 426 0 q 417 -3 408 -6 q 399 -9 395 -15 z"},")":{"x_min":0,"x_max":361,"ha":361,"o":"m 321 575 q 319 538 317 501 q 315 464 317 437 q 315 428 315 418 q 314 409 313 400 q 313 396 313 389 q 313 381 312 377 l 291 374 l 298 344 l 287 332 l 283 314 q 280 259 268 217 q 255 176 231 135 l 224 121 q 207 99 190 73 q 174 47 152 18 q 118 -20 92 -45 q 66 -71 40 -88 l 31 -99 q 13 -116 0 -127 q -14 -139 -24 -149 q -35 -159 -44 -167 q -53 -175 -62 -180 q -75 -170 -88 -172 q -101 -175 -108 -177 q -120 -165 -120 -156 q -120 -146 -116 -132 q -113 -118 -111 -102 q -108 -85 -116 -65 q -111 -55 -108 -44 q -104 -33 -101 -21 q -97 -9 -94 -3 q -91 2 -87 5 q -84 9 -80 12 q -75 16 -69 23 q -48 32 -24 51 q -1 70 19 93 q 39 116 54 140 q 69 164 76 185 l 82 202 l 116 246 l 118 273 q 141 319 156 387 q 165 423 166 463 q 166 504 162 544 q 157 585 148 623 q 140 661 129 692 q 132 696 134 708 q 137 719 138 731 q 140 744 140 755 q 141 767 139 771 l 132 781 q 128 784 127 789 q 126 793 125 798 q 123 822 138 845 q 156 842 173 835 q 190 829 206 822 q 217 799 229 784 q 241 770 253 756 q 264 743 274 731 q 284 719 295 699 q 299 667 305 641 q 311 614 318 586 z"},"&":{"x_min":0,"x_max":600,"ha":600,"o":"m 548 311 q 562 310 569 304 q 575 299 578 292 q 580 284 579 276 q 578 268 578 259 q 563 249 542 243 q 520 236 493 232 q 467 229 438 227 q 409 226 381 226 q 376 198 369 167 q 362 136 347 93 q 333 62 315 50 q 298 38 279 38 q 260 38 240 47 q 221 57 203 68 q 199 94 202 120 q 205 146 211 184 q 205 195 195 200 q 186 204 174 205 q 163 205 153 203 q 144 201 140 199 q 121 200 101 208 q 81 216 62 226 q 44 236 30 249 q 16 261 9 272 q 14 280 11 295 q 9 310 0 316 q 8 318 11 328 q 15 338 12 343 q 27 347 37 362 q 46 377 59 395 q 71 412 94 428 q 116 444 160 450 q 188 434 206 424 q 223 414 233 409 q 245 403 251 401 q 252 405 257 407 q 263 409 264 414 q 268 427 266 434 q 264 441 270 452 q 274 460 283 472 q 291 484 289 503 q 299 510 307 518 q 315 526 325 534 q 334 541 345 546 q 356 552 373 552 q 382 541 386 531 q 390 521 394 513 q 397 504 404 496 q 410 488 423 481 q 424 473 421 460 q 418 447 416 435 q 414 423 415 413 q 416 402 425 399 q 415 374 410 357 q 427 354 448 354 q 470 354 489 351 q 509 348 525 339 q 541 330 548 311 z m 136 315 q 136 307 150 307 q 154 307 159 307 q 163 308 168 309 q 173 310 178 311 q 173 316 168 320 q 163 324 159 328 q 154 331 150 331 q 146 331 141 324 q 136 317 136 315 z"},"_":{"x_min":0,"x_max":709,"ha":709,"o":"m 654 68 q 677 66 687 62 q 697 57 701 49 q 705 42 704 33 q 703 24 703 16 q 678 5 639 -1 q 601 -7 555 -10 q 509 -13 459 -13 q 409 -14 362 -14 q 315 -14 275 -14 q 235 -14 209 -15 q 128 -20 83 -24 q 38 -29 21 -34 q -8 -33 -25 -27 q -42 -21 -53 -13 q -63 -4 -71 7 q -79 19 -90 30 q -84 38 -87 53 q -91 67 -105 74 q -94 76 -88 86 q -82 96 -87 101 q -62 104 -35 105 q -7 106 21 107 q 48 107 72 110 q 97 112 115 118 q 190 118 272 119 q 354 119 426 121 q 451 116 486 115 q 521 114 554 111 q 588 107 616 99 q 644 90 654 68 z"},"v":{"x_min":0,"x_max":485,"ha":485,"o":"m 325 172 q 324 158 319 146 q 313 134 306 123 q 298 111 289 101 q 279 91 271 83 q 273 70 271 64 q 269 58 270 45 q 255 6 225 -7 q 195 -21 169 -2 q 158 6 151 18 q 144 30 131 33 q 134 50 128 66 q 122 83 115 84 q 112 104 106 128 q 101 151 96 175 q 91 199 87 222 q 84 245 85 265 q 86 274 82 282 q 77 290 75 301 q 71 323 73 348 q 74 373 74 396 q 74 417 72 442 q 69 467 67 490 q 65 513 65 532 q 65 551 70 562 q 76 573 86 581 q 97 588 105 597 q 127 595 140 579 q 152 563 149 550 q 170 537 182 517 q 194 497 202 472 q 209 447 212 419 q 215 392 217 365 q 219 338 221 313 q 223 289 229 271 q 265 323 289 364 q 313 404 339 441 q 364 479 396 517 q 427 555 477 603 q 486 602 493 599 q 499 596 504 594 q 509 592 516 590 q 522 589 534 591 q 538 581 540 577 q 542 572 543 568 q 545 563 547 557 q 550 550 556 537 q 559 534 558 529 q 557 524 556 520 q 556 516 556 514 q 556 512 561 514 q 558 500 550 489 q 543 478 544 462 q 521 433 495 401 q 468 370 441 337 q 414 304 390 267 q 365 230 348 190 q 343 190 340 188 q 338 185 336 181 q 334 178 332 175 q 329 172 325 172 z"},"O":{"x_min":0,"x_max":744,"ha":744,"o":"m 235 -4 q 192 -10 157 0 q 122 10 94 30 q 66 51 46 79 q 26 107 14 140 q 5 206 19 260 q 32 314 59 360 q 85 406 119 446 q 152 486 184 523 q 190 521 195 523 q 199 526 203 531 q 206 536 210 541 q 215 546 221 548 q 225 557 231 562 q 237 568 245 574 q 252 579 258 585 q 265 591 270 600 q 279 602 287 606 q 294 611 300 617 q 307 623 313 628 q 320 633 330 636 l 330 648 q 352 658 361 670 q 371 682 385 700 q 396 701 402 701 q 408 701 422 703 q 431 720 438 728 q 446 735 461 745 q 476 737 492 736 q 509 734 522 721 q 523 709 529 703 q 535 696 542 691 q 549 686 556 680 q 562 674 564 663 q 569 663 571 665 q 572 667 577 666 q 579 658 581 653 q 583 648 585 645 q 588 641 590 636 q 593 631 595 624 q 590 612 586 599 q 582 586 570 581 q 570 573 576 573 q 582 572 583 565 q 584 557 580 551 q 607 505 630 455 q 652 404 681 358 q 679 345 682 332 q 686 318 691 306 q 696 293 701 280 q 706 268 708 255 q 710 238 708 219 q 706 200 700 183 q 694 165 685 150 q 675 135 662 127 q 646 107 623 95 q 600 83 580 66 q 566 59 551 55 q 535 52 519 48 q 506 40 488 33 q 471 25 452 20 q 434 14 415 10 q 396 7 382 9 q 347 -4 313 -9 q 280 -14 235 -4 z m 248 352 q 238 329 225 311 q 212 293 199 274 q 187 256 177 235 q 168 214 167 186 q 187 169 213 166 q 240 162 269 165 q 297 167 325 172 q 354 177 376 177 q 376 186 384 186 q 425 189 460 208 q 495 228 533 247 q 538 259 546 268 q 554 276 555 293 q 550 302 548 308 q 547 313 547 325 q 521 360 503 402 q 484 443 460 480 q 458 476 452 471 q 446 466 439 473 q 437 463 431 459 q 425 456 417 456 q 410 456 403 459 q 396 462 390 467 q 355 439 322 414 q 288 389 261 354 q 256 352 255 353 q 254 354 248 352 z"},"(":{"x_min":0,"x_max":361,"ha":361,"o":"m 270 463 l 234 419 l 233 392 q 222 367 212 340 q 203 312 195 278 q 187 241 186 201 q 185 160 189 120 q 193 80 202 42 q 211 4 223 -27 q 220 -31 217 -42 q 215 -54 213 -66 q 212 -79 211 -90 q 211 -102 213 -106 l 220 -117 q 224 -119 225 -124 q 226 -129 227 -133 q 229 -157 214 -180 q 194 -177 177 -170 q 160 -164 146 -157 q 135 -134 123 -119 q 110 -104 99 -91 q 88 -79 78 -66 q 67 -54 57 -34 q 53 -2 47 24 q 41 51 33 79 l 30 90 q 32 126 34 164 q 36 201 34 229 q 36 236 37 246 q 37 255 38 265 q 38 269 38 276 q 38 284 39 288 l 61 290 l 54 321 l 64 333 l 68 351 q 71 406 84 448 q 97 489 120 529 l 128 544 q 145 566 161 592 q 178 617 199 646 q 233 684 259 710 q 285 736 312 753 l 320 764 q 339 781 352 792 q 365 804 376 814 q 387 824 396 832 q 404 840 413 845 q 427 835 439 837 q 452 839 460 842 q 472 829 472 820 q 472 812 468 796 q 465 783 462 767 q 460 750 468 730 q 463 720 459 708 q 456 697 452 686 q 448 674 445 668 q 442 663 439 660 q 436 656 431 653 q 427 649 421 642 q 398 633 375 614 q 353 595 333 572 q 312 549 297 524 q 282 500 275 479 z"},"C":{"x_min":0,"x_max":611,"ha":611,"o":"m 91 85 q 62 106 44 139 q 26 171 16 207 q 6 243 2 282 q -1 320 0 355 q 9 382 21 404 q 34 426 50 446 q 65 466 83 484 q 100 502 116 521 q 122 521 127 518 q 131 528 139 536 q 146 544 155 550 q 164 557 173 563 q 182 569 188 578 q 212 584 231 595 q 250 605 268 618 q 285 631 304 642 q 322 652 347 658 q 355 668 369 675 q 382 682 395 688 q 408 693 420 700 q 433 707 440 719 q 446 711 457 713 q 468 716 477 719 q 482 720 486 717 q 490 714 494 710 q 497 707 500 706 q 502 705 505 712 q 513 711 509 705 q 506 699 505 697 q 515 699 521 694 q 527 688 541 687 q 546 682 544 679 q 542 676 541 669 q 576 658 586 635 q 596 612 588 587 q 580 562 559 542 q 538 521 513 514 q 482 506 457 498 q 431 490 407 480 q 383 471 362 458 q 341 444 325 427 q 298 419 276 405 q 254 392 235 375 q 216 358 198 340 q 181 322 163 305 q 163 288 157 279 q 151 271 145 262 q 146 243 153 230 q 159 217 166 203 q 244 180 332 174 q 419 169 505 168 q 514 156 525 146 q 536 136 545 125 q 555 114 560 100 q 565 86 562 66 q 546 50 526 35 q 507 20 487 5 q 479 4 466 5 q 454 6 441 6 q 428 6 415 4 q 401 3 390 -2 q 328 0 264 13 q 199 26 145 45 q 134 58 122 69 q 110 80 91 85 z"},"W":{"x_min":0,"x_max":994,"ha":994,"o":"m 76 69 q 71 80 66 90 q 62 100 57 107 q 45 131 36 149 q 27 168 20 192 q 22 209 30 248 q 37 287 47 333 q 57 380 68 428 q 79 476 91 510 q 102 540 115 574 q 128 608 144 637 q 160 666 179 687 q 197 707 219 711 q 225 703 231 699 q 238 694 244 692 q 261 669 276 653 q 292 637 313 621 q 308 592 296 556 q 285 521 273 484 q 261 448 249 415 q 237 381 230 356 q 225 337 219 312 q 214 290 208 260 q 203 229 198 193 q 212 197 229 209 q 246 221 261 233 q 278 248 295 265 q 317 287 333 306 q 349 324 362 344 q 375 364 389 388 q 403 412 423 445 q 440 474 459 506 q 479 538 498 567 q 518 597 536 622 q 555 646 570 660 q 581 649 595 638 q 609 626 626 621 q 633 610 639 602 q 646 594 651 586 q 659 575 666 566 q 672 558 677 547 q 676 539 673 526 q 671 514 668 499 q 665 483 662 468 q 658 452 655 438 q 646 394 641 371 q 636 349 634 336 q 632 323 631 314 q 631 306 631 290 q 631 278 633 267 q 635 256 637 245 q 640 233 646 224 l 693 260 q 713 274 731 301 q 749 328 766 363 q 783 397 800 438 q 816 479 833 521 q 845 553 857 583 q 869 614 882 642 q 895 670 907 693 q 919 716 931 731 q 957 715 976 698 q 995 682 1009 662 q 1023 642 1032 616 q 1040 590 1044 555 q 1022 514 1004 471 q 985 428 967 384 q 943 327 918 271 q 894 215 863 164 q 833 113 795 71 q 758 28 709 -1 q 695 2 686 2 q 675 2 667 -1 q 660 -4 654 -9 q 614 10 590 46 q 565 83 542 128 q 539 135 536 141 q 532 147 528 154 l 512 185 l 502 203 l 488 190 l 468 172 l 456 160 q 426 132 395 105 q 363 78 329 56 q 295 34 256 21 q 218 7 174 6 q 166 10 160 13 q 153 16 147 19 q 125 29 110 39 q 96 49 76 69 z"},"A":{"x_min":0,"x_max":702,"ha":702,"o":"m -25 93 l -13 103 l -12 123 q 13 183 39 237 q 64 292 93 350 q 102 368 111 387 q 120 405 129 425 q 128 429 128 433 q 128 438 130 443 q 144 463 152 479 q 160 494 168 511 q 177 530 187 550 q 197 569 213 588 l 220 598 l 230 597 q 234 599 239 600 q 243 602 250 602 l 268 599 q 300 613 325 641 q 350 669 375 708 l 387 725 l 402 715 q 407 712 418 709 q 429 706 440 702 q 461 697 480 691 q 500 685 511 674 l 516 665 q 518 654 519 646 q 521 637 522 628 q 526 607 529 587 q 532 567 533 543 q 538 523 542 503 q 547 483 551 464 q 556 436 562 410 q 567 384 577 360 q 587 360 589 359 q 601 364 616 365 l 629 366 l 633 354 q 635 352 638 349 q 641 346 645 343 q 660 342 667 336 q 675 331 680 326 q 682 324 685 322 q 688 319 689 318 l 707 312 l 697 293 q 687 272 665 253 q 643 233 615 221 q 617 214 618 208 q 618 202 620 194 q 624 175 626 154 q 629 133 626 110 q 616 85 603 65 q 590 45 572 29 q 554 13 531 2 q 509 -8 484 -9 q 471 -6 464 -2 q 458 2 453 6 q 445 12 440 14 l 428 20 l 432 34 q 435 42 431 48 q 428 54 417 63 q 413 66 410 70 q 407 73 403 77 l 384 100 l 416 108 q 445 116 455 128 q 465 141 463 172 q 438 177 423 173 q 407 170 392 166 q 369 160 348 156 q 326 151 301 151 q 284 151 266 154 l 255 155 l 252 166 q 252 168 250 170 q 247 173 245 175 q 240 181 233 190 q 227 200 230 215 q 224 226 223 237 q 219 229 216 222 q 214 215 212 208 l 208 195 l 195 193 q 193 191 192 188 q 190 184 191 182 l 195 171 l 186 162 q 184 159 181 157 q 178 155 176 153 q 174 143 170 133 q 167 123 163 113 q 158 98 154 83 q 149 68 149 54 l 146 41 q 141 33 133 29 q 126 25 119 22 q 109 19 105 15 l 103 2 l 88 0 q 75 -3 70 -4 q 64 -5 58 -5 l 45 -4 q 33 8 26 14 q 19 21 9 25 l 3 33 q -1 41 -2 47 q -3 54 -5 61 q -7 73 -11 78 z m 286 347 q 272 327 260 306 q 267 307 273 307 q 279 307 286 308 q 320 310 350 312 q 379 315 413 322 q 405 358 396 396 q 387 434 376 472 l 371 462 q 347 436 324 405 q 302 375 287 348 z"},"f":{"x_min":0,"x_max":455,"ha":455,"o":"m 137 33 q 131 0 104 -13 q 91 -14 84 -12 q 78 -10 71 -7 q 62 -3 56 -2 l 45 6 q 43 11 40 16 q 37 21 33 25 q 25 35 18 50 q 12 78 16 97 q 20 116 25 135 q 27 141 29 147 q 31 153 33 159 q 8 173 -5 198 q -18 224 -20 247 q -17 266 -9 277 q -1 288 9 295 q 20 302 31 306 q 42 310 53 312 l 65 308 q 74 299 83 294 q 90 297 92 303 q 95 310 97 317 q 100 326 103 335 q 106 344 111 353 q 110 365 115 376 q 108 381 101 382 q 99 382 91 384 q 79 393 75 399 q 70 405 66 411 q 61 424 52 432 l 42 438 l 47 448 q 49 450 49 453 q 49 456 45 462 q 43 473 45 477 l 47 486 q 55 497 55 498 l 63 507 q 83 512 102 518 q 121 524 141 531 q 159 537 178 543 q 197 550 217 555 q 224 560 231 561 q 239 562 246 563 q 252 564 257 565 q 262 565 264 568 q 275 572 291 577 q 315 584 355 592 q 396 601 445 605 l 462 606 q 467 605 472 606 q 477 606 481 606 q 525 606 537 580 q 546 575 553 569 q 560 563 565 558 q 568 554 572 551 q 575 548 577 547 q 594 521 588 502 q 579 489 565 487 l 555 481 q 544 482 539 482 q 533 482 527 482 q 503 482 471 479 q 438 477 405 471 q 371 466 340 458 q 309 450 285 441 l 268 433 q 261 422 260 416 q 259 409 258 403 q 257 399 256 396 q 256 392 255 387 q 238 366 238 338 q 231 326 229 321 q 228 315 229 308 q 248 300 265 302 q 281 304 298 307 q 320 311 344 313 q 368 316 394 316 l 425 316 l 417 309 l 422 295 q 428 292 430 291 q 433 290 436 288 l 440 279 q 444 277 448 272 q 451 268 452 258 l 412 201 l 398 197 q 382 198 369 193 q 362 191 355 190 q 349 188 341 188 q 321 185 308 183 q 295 181 281 179 q 264 177 247 173 q 230 170 216 164 q 206 164 202 164 q 194 164 186 162 q 178 159 171 157 q 166 153 164 149 q 162 145 160 140 q 156 126 149 117 l 149 103 q 142 93 140 87 q 139 82 137 77 q 135 74 134 72 q 133 69 133 66 q 141 52 137 33 z"},"Q":{"x_min":0,"x_max":744,"ha":744,"o":"m 15 85 q 15 101 12 113 q 10 125 7 136 q 5 146 4 158 q 3 170 7 186 q 4 194 1 203 q -2 211 -5 220 q -3 264 13 299 q 28 335 51 365 q 73 395 100 419 q 126 444 150 468 q 155 463 158 466 q 160 470 169 468 q 170 474 175 482 q 180 491 187 499 q 194 506 203 511 q 212 516 220 515 q 229 533 250 547 q 270 562 290 575 q 311 589 327 605 q 344 622 348 646 l 367 646 q 355 664 356 683 q 357 702 369 714 q 380 727 399 729 q 419 732 444 720 q 455 718 459 724 q 463 729 472 731 q 517 712 552 684 q 587 655 615 619 q 613 616 611 615 q 608 613 606 612 q 604 610 604 608 q 604 606 607 604 q 641 562 667 514 q 693 467 716 414 q 721 374 719 334 q 717 295 708 251 q 700 234 690 220 q 680 206 668 193 q 656 180 645 167 q 633 153 623 139 l 640 100 q 639 92 643 83 q 646 73 650 64 q 654 55 657 46 q 659 37 656 31 q 659 25 669 27 q 665 25 664 20 q 662 14 673 16 q 671 5 664 -9 q 657 -22 646 -35 q 636 -47 621 -55 q 605 -63 587 -63 q 567 -54 556 -44 q 545 -34 529 -21 l 493 64 q 422 32 341 12 q 260 -8 169 -13 q 120 1 80 24 q 40 48 15 85 z m 266 343 q 223 308 188 261 q 153 214 132 158 q 141 153 153 152 q 166 151 177 148 q 232 164 292 178 q 351 192 405 214 q 383 241 363 267 q 343 292 331 317 q 334 323 336 331 q 339 339 343 347 q 347 354 354 360 q 360 366 372 366 q 390 359 414 358 q 438 357 457 354 q 477 340 491 320 q 506 300 521 280 q 542 300 558 324 q 573 348 581 378 q 575 394 566 413 q 558 433 546 451 q 535 470 521 484 q 507 499 490 504 q 482 506 480 501 q 478 497 468 500 q 415 462 362 425 q 310 389 266 343 z"},"w":{"x_min":0,"x_max":825,"ha":825,"o":"m 550 -13 q 516 3 496 33 q 476 63 456 101 q 453 106 450 112 q 447 118 444 123 l 431 148 l 423 164 l 411 153 l 394 138 l 384 128 q 358 104 333 82 q 307 59 278 41 q 249 22 217 11 q 186 0 148 -1 l 127 10 q 108 20 96 27 q 83 35 66 52 q 62 61 58 68 q 55 76 51 84 q 40 104 33 119 q 26 135 20 154 q 22 168 28 201 q 34 233 42 272 q 51 312 60 351 q 69 391 79 420 q 88 445 99 474 q 110 502 124 526 q 137 550 152 567 q 168 584 186 587 q 190 580 196 577 q 202 574 207 572 q 221 553 234 539 q 247 525 265 512 q 260 487 250 458 q 241 428 231 398 q 221 368 211 340 q 201 312 195 291 q 189 274 186 254 q 177 218 169 155 q 181 158 194 168 q 208 178 221 188 q 235 200 250 215 q 269 233 281 249 q 294 265 305 281 q 316 298 328 318 q 340 338 356 365 q 371 389 387 416 q 403 442 419 467 q 436 492 451 513 q 467 533 479 545 q 487 535 500 526 q 512 518 525 513 q 531 504 537 497 q 542 489 547 483 q 553 475 558 467 q 563 459 568 451 q 567 444 565 434 q 563 423 561 410 q 559 397 556 384 q 553 371 550 359 q 542 322 538 304 q 534 285 533 274 q 531 264 531 256 q 530 249 530 236 q 529 227 531 217 q 532 208 535 198 q 538 188 543 181 l 582 211 q 599 224 614 246 q 629 268 643 296 q 657 325 671 359 q 685 394 698 429 q 719 480 740 529 q 761 578 780 604 q 802 591 818 577 q 834 562 846 546 q 857 529 865 508 q 872 486 875 457 q 857 423 841 387 q 825 351 811 314 q 791 268 770 221 q 749 174 724 131 q 698 89 667 53 q 636 18 595 -7 q 584 -4 576 -4 q 561 -4 550 -13 z"},"-":{"x_min":0,"x_max":609,"ha":609,"o":"m 508 291 q 522 289 529 284 q 535 279 538 272 q 540 265 539 256 q 538 247 538 238 q 514 222 471 215 q 428 209 381 207 q 334 204 290 204 q 246 204 221 201 q 168 195 139 190 q 110 185 100 180 q 81 181 70 187 q 60 192 53 201 q 46 209 41 220 q 36 230 29 242 q 33 250 31 265 q 29 279 20 287 q 27 288 31 298 q 35 309 31 313 q 47 317 65 319 q 83 320 101 321 q 118 322 134 325 q 150 327 162 333 q 211 334 263 336 q 315 338 361 340 q 378 335 400 334 q 423 334 444 332 q 466 329 483 320 q 501 312 508 291 z"},"E":{"x_min":0,"x_max":627,"ha":627,"o":"m 55 33 q 47 41 43 52 q 40 62 27 69 q 25 84 22 103 q 19 122 15 142 q 12 162 10 182 q 9 202 12 219 q 14 228 18 235 q 22 243 27 250 q 31 258 34 266 q 36 273 34 281 q 40 282 42 288 q 43 293 51 291 q 58 312 65 331 q 73 350 82 367 q 91 385 100 403 q 109 421 117 443 q 101 459 93 477 q 86 495 82 514 q 78 532 76 551 q 74 570 68 590 q 80 607 97 619 q 113 630 133 637 q 153 645 177 649 q 200 653 227 659 q 273 674 311 682 q 348 690 383 696 q 418 701 456 706 q 494 710 544 719 q 545 716 547 716 q 550 716 554 716 q 557 709 564 709 q 564 712 564 714 q 563 717 563 719 q 565 719 569 718 q 572 717 575 716 q 577 715 579 716 q 581 718 580 723 q 592 702 610 689 q 629 676 651 666 q 652 657 652 653 q 651 649 650 646 q 649 643 649 638 q 649 634 651 626 q 636 600 616 585 q 596 570 573 562 q 551 555 526 551 q 501 547 475 542 q 449 538 423 530 q 396 522 371 507 q 363 510 357 509 q 351 509 344 507 q 337 505 329 503 q 320 501 309 503 q 301 496 291 493 q 280 490 270 487 q 274 477 274 466 q 273 455 276 447 q 317 443 367 448 q 417 452 465 454 q 466 449 464 447 q 462 445 462 440 q 471 435 479 426 q 486 417 495 409 q 503 400 512 395 q 521 390 532 391 q 537 381 539 370 q 541 359 536 348 q 517 335 498 322 q 479 309 459 298 q 439 287 416 280 q 393 273 365 274 q 360 274 357 274 q 354 274 349 278 q 339 273 323 275 q 307 276 296 271 q 282 276 264 276 q 246 276 232 281 q 215 256 199 228 q 184 200 172 169 q 212 163 238 164 q 265 165 288 168 q 312 171 336 174 q 361 177 397 176 q 422 188 454 192 q 485 196 513 205 q 522 202 529 194 q 536 186 542 177 q 549 169 556 163 q 562 157 573 159 q 578 154 580 147 q 581 141 583 135 q 584 129 587 125 q 590 122 598 123 q 579 85 556 64 q 533 44 504 33 q 476 21 440 16 q 404 11 360 3 q 350 1 342 3 q 335 6 327 6 q 300 1 262 -4 q 225 -9 187 -8 q 148 -7 113 2 q 78 11 55 33 z"},"s":{"x_min":0,"x_max":464,"ha":464,"o":"m 16 439 q 22 460 38 475 q 53 489 71 500 q 89 510 108 517 q 128 523 146 528 q 185 545 229 560 q 273 575 320 587 q 366 599 415 602 q 464 605 518 590 q 521 580 526 571 q 532 562 539 554 q 545 545 550 537 q 555 528 556 520 q 565 511 571 500 q 577 490 573 474 q 563 466 554 459 q 545 453 534 448 q 498 457 461 454 q 424 451 395 449 q 386 458 374 458 q 361 458 348 454 q 335 450 322 446 q 309 442 297 444 q 287 437 273 434 q 259 432 242 430 q 241 425 244 423 q 247 422 245 417 q 251 410 260 407 q 270 404 280 401 q 290 398 298 394 q 306 390 309 380 q 323 380 334 373 q 345 366 352 356 q 358 347 362 335 q 365 324 365 315 q 368 308 372 309 q 376 310 381 305 q 384 292 396 279 q 407 266 414 250 q 416 226 417 207 q 418 188 410 168 q 396 132 370 104 q 344 75 311 53 q 278 31 241 16 q 204 0 169 -11 q 165 -10 161 -11 q 157 -12 159 -6 q 151 -13 142 -15 q 133 -17 122 -16 q 111 -16 100 -15 q 89 -14 79 -16 q 72 -9 67 -2 q 62 4 59 14 q 54 14 54 19 q 55 23 51 23 q 57 33 56 35 q 56 36 53 37 q 51 38 49 40 q 47 41 48 44 q 52 52 51 62 q 50 72 49 83 q 48 94 50 104 q 53 113 64 119 q 98 115 127 122 q 157 128 184 140 q 210 151 234 165 q 258 179 281 189 q 284 198 290 204 q 295 210 301 215 q 307 220 312 226 q 316 231 318 240 q 319 247 315 249 q 311 250 311 256 l 300 259 q 281 270 258 277 q 234 284 218 293 q 207 287 198 290 q 188 293 174 296 q 141 298 110 303 q 79 308 51 320 q 49 325 46 329 q 43 333 35 331 q 29 339 23 346 q 18 354 13 362 q 15 374 16 382 q 17 391 10 398 q 14 411 16 419 q 18 427 16 439 z"},">":{"x_min":0,"x_max":635,"ha":635,"o":"m 548 309 q 548 297 557 288 q 566 278 571 267 q 577 253 575 239 q 572 226 563 215 q 555 204 541 196 q 526 188 508 186 q 496 190 490 189 q 483 188 473 193 q 455 182 430 170 q 405 159 382 164 q 379 156 371 156 q 362 156 360 147 q 320 141 282 126 q 244 111 208 94 q 172 77 138 60 q 104 42 73 29 q 60 33 48 29 q 36 24 23 25 q 26 28 24 29 q 22 30 19 31 q 15 31 10 32 q 6 32 3 35 q -8 42 -13 46 q -19 50 -22 52 q -25 54 -29 57 q -33 60 -40 65 q -36 75 -36 82 q -35 88 -36 93 q -37 99 -39 104 q -40 110 -39 120 q 15 154 56 174 q 97 194 136 209 q 175 224 216 237 q 258 250 312 271 q 290 284 254 295 q 219 306 183 319 q 147 332 118 352 q 89 371 79 402 q 65 403 55 418 q 45 433 47 452 q 57 458 65 465 q 73 473 86 477 q 97 479 114 475 q 131 471 151 464 q 171 457 193 449 q 215 441 234 437 q 254 432 277 428 q 300 424 319 416 q 328 412 334 407 q 341 401 350 399 q 367 396 387 388 q 407 380 428 370 q 448 360 468 350 q 488 340 506 333 q 505 327 519 318 q 532 310 548 309 z"},"l":{"x_min":0,"x_max":533,"ha":533,"o":"m 258 11 q 230 2 198 -7 q 166 -16 134 -16 q 85 -16 57 9 q 52 20 48 23 q 45 27 42 32 q 40 36 39 44 q 27 58 21 76 q 14 94 11 113 q 9 132 10 151 q 12 171 17 188 q 19 192 19 196 q 20 200 21 205 q 24 221 29 235 q 33 250 41 261 q 37 270 41 280 q 45 291 50 300 q 63 337 73 363 q 82 389 92 414 q 108 458 123 501 q 138 544 149 594 q 157 599 161 601 q 167 603 171 604 q 188 595 212 586 q 235 578 251 578 q 259 573 261 571 q 263 568 265 566 q 275 554 283 541 q 291 527 288 506 q 282 497 279 497 q 274 478 269 464 q 264 450 258 437 q 251 422 245 407 q 239 393 235 371 q 231 366 230 362 q 229 358 227 354 q 225 349 222 343 q 220 338 215 334 q 212 309 206 293 q 199 277 192 262 q 181 233 171 205 q 162 177 160 141 q 165 143 169 143 q 174 143 178 143 q 187 143 198 140 q 228 155 262 158 q 297 161 331 162 q 345 162 358 162 q 372 162 384 164 q 393 159 395 159 q 397 158 402 158 q 409 158 414 157 q 426 146 437 142 q 447 137 459 133 q 470 129 480 125 q 490 120 500 112 l 507 70 q 514 62 513 59 q 513 51 509 47 l 511 36 q 496 33 491 29 q 485 25 480 21 q 473 20 469 20 q 466 20 463 20 q 449 20 430 15 q 403 23 375 23 q 364 23 353 22 q 341 21 329 21 q 317 19 305 18 q 293 17 280 17 z"},"8":{"x_min":0,"x_max":537,"ha":537,"o":"m 512 716 q 533 700 546 678 q 560 656 567 631 q 575 606 580 580 q 584 553 587 528 q 577 494 554 463 q 530 432 498 413 q 469 391 446 373 q 423 354 392 349 q 384 341 376 334 q 369 328 363 318 q 380 273 397 229 q 415 186 421 133 q 409 126 408 112 q 407 99 407 83 q 396 69 390 54 q 384 39 371 28 q 368 26 365 28 q 361 29 358 27 q 346 21 333 10 q 319 -1 306 -5 q 280 -12 254 -11 q 229 -10 205 -3 q 181 4 160 16 q 140 28 124 45 q 113 64 106 85 q 100 106 84 122 q 79 153 79 196 q 78 239 92 281 q 97 295 104 306 q 112 316 111 330 q 116 331 119 334 q 121 337 126 339 q 129 347 125 350 q 122 353 124 359 q 109 380 95 402 q 81 424 71 447 q 62 471 60 497 q 58 523 68 554 q 68 568 75 587 q 81 605 92 623 q 103 641 116 655 q 130 669 146 676 q 146 683 150 684 q 153 686 153 692 q 166 696 177 702 q 188 708 199 713 q 210 719 223 723 q 236 728 254 729 q 285 730 318 725 q 351 719 373 705 q 383 680 397 660 q 411 641 418 624 q 420 609 422 598 q 424 587 424 576 q 424 565 421 554 q 418 543 410 528 q 430 533 443 544 q 456 555 463 575 q 463 592 454 604 q 445 615 440 630 q 446 633 448 637 q 450 642 449 646 q 448 651 447 656 q 445 661 445 666 q 451 668 453 666 q 455 664 458 667 q 456 675 456 675 q 455 676 454 682 q 458 687 464 691 q 470 696 475 690 q 469 700 474 709 q 479 718 488 723 q 493 721 499 719 q 504 717 512 716 z m 280 159 q 280 166 283 169 q 286 173 288 178 q 276 202 265 219 q 254 236 229 252 q 215 243 208 230 q 201 218 200 205 q 199 191 205 179 q 210 166 221 156 q 230 159 248 156 q 266 152 280 159 z m 256 442 q 271 450 286 456 q 302 462 317 468 q 333 474 348 481 q 362 488 373 500 q 336 500 312 513 q 288 525 289 558 q 275 564 260 564 q 244 563 231 557 q 219 551 213 540 q 207 528 212 515 q 210 510 205 509 q 200 509 200 502 q 215 488 226 472 q 237 455 256 442 z"},"\\":{"x_min":0,"x_max":353,"ha":353,"o":"m 279 131 q 274 118 275 107 q 276 96 280 85 q 284 74 288 64 q 292 55 292 45 q 287 37 284 29 q 281 21 278 13 q 275 5 271 -3 q 267 -12 258 -19 q 238 -21 225 -21 q 212 -20 194 -21 q 176 -11 166 7 q 156 25 152 46 q 147 67 147 88 q 147 109 149 126 q 158 134 148 136 q 148 143 147 160 q 146 178 143 199 q 140 220 137 242 q 134 265 131 282 q 123 297 119 329 q 114 361 110 396 q 105 431 100 460 q 95 490 85 501 q 87 522 79 557 q 71 591 65 627 q 60 663 60 695 q 61 727 79 743 q 115 731 142 709 q 168 687 194 651 q 196 638 199 613 q 202 588 206 558 q 210 528 214 496 q 218 463 222 434 q 227 405 231 382 q 235 359 240 349 q 241 328 248 302 q 254 276 260 249 q 266 221 269 193 q 271 166 266 144 q 268 139 272 137 q 276 135 279 131 z"},"e":{"x_min":0,"x_max":521,"ha":521,"o":"m 545 550 q 546 543 545 540 q 545 536 544 533 q 544 530 544 527 q 544 523 546 517 q 525 483 499 471 q 472 459 440 454 q 409 448 376 442 q 344 437 312 417 q 299 422 289 417 q 278 412 259 414 q 253 408 244 406 q 235 403 227 400 q 230 392 230 382 q 229 373 232 367 q 267 364 308 368 q 350 372 390 373 q 391 368 389 367 q 387 365 388 361 q 395 356 401 349 q 408 342 415 335 q 422 328 429 324 q 437 319 446 320 q 450 312 452 303 q 453 294 449 284 q 434 273 418 262 q 402 251 385 242 q 368 233 349 228 q 330 223 307 224 q 302 224 299 224 q 297 224 293 227 q 285 222 271 224 q 257 226 249 221 q 238 226 223 225 q 208 225 196 229 q 181 208 168 185 q 155 161 146 135 q 179 130 201 131 q 223 132 242 134 q 262 137 282 139 q 303 142 334 141 q 354 151 380 155 q 407 158 430 166 q 438 163 443 156 q 449 148 455 142 q 460 136 466 131 q 472 126 480 127 q 484 123 486 118 q 487 112 488 107 q 489 103 492 99 q 494 96 500 97 q 485 64 466 47 q 447 30 423 21 q 398 13 369 8 q 339 3 303 -4 q 294 -6 288 -3 q 282 -1 274 -1 q 252 -6 221 -10 q 189 -14 157 -13 q 125 -12 96 -4 q 66 3 48 21 q 40 28 38 38 q 35 47 24 52 q 23 64 21 80 q 18 96 15 113 q 12 130 10 146 q 9 163 12 177 q 15 191 24 203 q 33 215 30 229 q 35 229 36 234 q 37 238 44 237 q 50 255 57 271 q 63 286 71 301 q 78 315 85 331 q 93 346 100 364 q 86 377 80 392 q 73 407 70 422 q 67 438 65 454 q 63 470 59 486 q 68 501 83 510 q 97 520 113 525 q 130 531 149 535 q 169 539 190 544 q 229 557 260 563 q 291 570 321 575 q 351 579 383 583 q 415 587 456 595 q 465 586 473 586 q 477 595 482 591 q 487 588 486 597 q 496 580 511 569 q 526 558 545 550 z"},"b":{"x_min":0,"x_max":573,"ha":573,"o":"m 536 159 q 542 156 543 149 q 544 143 543 139 q 525 116 519 107 q 512 99 509 94 q 506 90 502 87 q 499 84 487 74 q 443 48 397 27 q 351 7 300 -1 q 292 -12 270 -16 q 248 -21 229 -24 q 226 -22 225 -19 q 225 -16 221 -14 q 220 -23 212 -24 q 204 -24 193 -20 q 182 -16 169 -8 q 157 -1 148 5 q 144 -3 138 -11 q 133 -19 125 -21 q 114 -20 109 -19 q 104 -18 99 -22 q 93 -20 89 -16 q 86 -12 83 -8 q 79 -5 75 -2 q 70 1 62 3 q 64 7 61 15 q 57 23 49 25 q 53 32 45 42 q 38 53 34 65 q 36 76 37 89 q 38 102 49 104 q 48 110 46 115 q 44 120 42 125 q 49 131 52 139 q 55 147 57 156 q 59 165 62 174 q 64 183 72 188 q 81 218 86 232 q 91 246 93 260 q 96 273 99 289 q 103 305 111 328 q 110 343 114 354 q 118 365 123 376 q 127 388 130 400 q 133 412 129 429 q 115 428 109 419 q 104 411 102 397 q 94 390 83 390 q 71 391 62 388 q 28 401 6 427 q -17 452 -30 486 q -21 509 -4 524 q 14 539 36 549 q 59 560 84 566 q 109 572 133 578 q 171 585 209 594 q 247 603 291 600 q 297 603 305 603 q 313 604 322 604 q 331 604 339 604 q 348 604 354 607 q 358 602 368 600 q 377 599 388 591 q 399 600 408 595 q 416 590 423 584 q 430 578 436 573 q 442 568 449 568 q 456 560 466 552 q 477 544 486 536 q 495 527 501 518 q 508 508 508 495 q 507 490 511 489 q 515 488 517 485 q 518 455 507 433 q 497 411 482 393 q 467 374 449 357 q 431 341 416 322 q 426 310 438 300 q 451 290 464 280 q 478 271 489 260 q 501 249 509 234 q 511 232 514 231 q 517 229 520 228 q 522 218 527 208 q 532 197 536 188 q 539 179 540 171 q 541 164 536 159 z m 364 485 q 314 487 265 477 q 216 466 183 446 q 199 433 216 422 q 233 411 243 393 q 281 408 311 432 q 340 456 364 485 z m 377 174 q 380 184 388 189 q 396 195 403 201 q 411 206 417 212 q 423 219 422 230 q 391 247 365 250 q 339 254 316 250 q 293 247 272 240 q 251 233 229 230 q 219 202 207 169 q 195 136 185 104 q 214 108 238 117 q 263 125 286 135 q 309 145 331 155 q 353 165 377 174 z"},"%":{"x_min":0,"x_max":644,"ha":644,"o":"m 444 544 q 457 552 473 568 q 489 584 507 602 q 524 620 543 640 q 562 659 580 674 q 599 689 616 698 q 634 707 649 706 q 657 672 652 638 q 646 604 630 562 q 619 552 599 534 q 579 516 555 494 q 531 472 506 448 q 480 424 458 402 q 435 380 417 362 q 400 344 394 334 q 377 319 350 294 q 323 269 293 240 q 264 212 236 185 q 208 157 190 140 q 188 135 191 131 q 194 128 194 123 q 183 113 179 105 q 176 97 175 89 q 175 81 175 73 q 176 64 173 55 q 165 49 159 42 q 152 34 146 27 q 141 20 133 13 q 126 7 115 2 q 96 3 84 6 q 72 10 56 13 q 42 25 41 45 q 39 64 43 85 q 48 105 56 125 q 64 146 72 160 q 82 183 93 191 q 104 200 105 208 q 114 218 137 239 q 160 261 188 285 q 215 310 241 333 q 267 355 280 369 q 289 385 314 409 q 340 434 368 459 q 396 484 418 507 q 440 530 444 544 z m 293 664 q 291 659 290 654 q 288 648 283 646 q 288 635 287 633 q 299 613 308 593 q 317 572 329 553 q 327 541 333 530 q 339 520 341 509 q 343 495 337 479 q 332 462 321 455 q 314 447 305 442 q 295 438 287 430 q 281 426 275 425 q 269 424 262 422 q 251 415 233 409 q 216 403 204 405 q 189 400 175 398 q 161 396 143 400 q 106 396 83 415 q 60 434 49 460 q 45 488 51 511 q 57 534 68 554 q 79 573 93 590 q 107 606 120 622 q 126 620 128 625 q 131 630 136 632 q 140 640 146 643 q 152 646 156 653 q 165 655 169 661 q 174 667 182 669 q 191 679 195 684 q 199 688 205 696 q 210 696 212 696 q 215 696 221 697 q 225 704 228 708 q 230 711 237 715 q 243 712 250 711 q 258 710 263 705 q 263 700 266 697 q 269 694 271 692 q 274 689 277 687 q 279 685 280 681 q 288 675 290 672 q 291 670 293 664 z m 223 524 q 226 534 226 535 q 226 535 225 537 q 221 543 218 550 q 215 557 211 562 q 205 557 199 561 q 194 556 189 552 q 184 548 179 542 q 173 534 168 529 q 164 524 163 515 q 170 510 180 512 q 189 514 197 514 q 205 516 211 519 q 217 521 223 524 z m 578 172 q 576 160 582 150 q 587 140 589 129 q 591 115 586 98 q 581 81 570 75 q 563 66 553 62 q 543 57 535 49 q 529 46 523 44 q 518 43 510 41 q 499 35 482 29 q 465 23 452 24 q 438 20 424 18 q 410 16 391 20 q 354 15 332 34 q 309 53 298 80 q 294 107 300 130 q 306 153 316 173 q 327 192 341 209 q 355 226 369 241 q 374 239 377 245 q 380 250 385 251 q 388 259 395 262 q 401 266 405 273 q 413 275 418 281 q 423 286 431 288 q 439 298 444 303 q 448 308 454 315 q 459 316 461 316 q 464 315 469 316 q 474 324 477 327 q 479 330 485 335 q 491 331 499 331 q 506 330 511 324 q 512 313 520 311 q 527 309 529 300 q 536 294 538 292 q 540 290 542 283 q 540 278 538 273 q 536 268 531 266 q 537 255 535 253 q 547 233 556 212 q 565 191 578 172 z m 472 145 q 474 153 474 157 q 469 163 466 170 q 464 177 460 183 q 455 178 453 178 q 450 178 448 180 q 442 175 437 171 q 432 167 427 162 q 422 153 417 148 q 412 144 412 135 q 419 129 429 131 q 438 133 446 133 q 454 135 459 138 q 465 141 472 145 z"},"m":{"x_min":0,"x_max":814,"ha":814,"o":"m 676 18 q 666 13 658 9 q 649 5 639 5 q 601 33 599 104 q 598 174 629 282 q 634 285 634 294 l 625 304 q 621 304 618 303 q 614 302 612 296 q 587 277 557 257 q 526 237 494 220 q 461 203 427 192 q 394 182 361 182 q 279 182 238 265 l 230 279 l 223 267 q 220 263 214 250 q 208 238 202 223 q 196 207 192 191 q 188 175 188 163 q 180 154 170 143 q 160 131 155 116 q 153 108 157 102 q 155 93 148 88 q 145 83 140 79 q 136 74 133 69 q 131 64 130 60 q 130 55 129 50 q 129 43 127 37 q 110 3 101 -7 q 91 -18 74 -18 q 66 -18 49 -15 q 36 -1 26 23 q 16 47 10 74 q 5 102 5 129 q 6 157 15 178 q 15 179 22 197 q 30 216 42 245 q 55 274 70 310 q 86 346 102 379 q 117 413 131 441 q 146 470 155 484 q 163 496 169 506 q 176 517 182 526 q 199 557 215 577 q 231 597 263 608 q 284 600 294 588 l 296 577 q 300 567 308 567 q 318 564 326 562 q 333 560 342 558 q 349 550 354 539 q 362 527 370 516 q 377 505 381 494 q 386 482 386 471 q 387 459 382 446 l 383 437 q 388 428 385 412 q 384 405 384 398 q 384 391 386 382 q 403 368 417 368 q 433 368 446 375 q 459 383 471 391 q 479 396 486 401 q 494 405 502 406 q 520 423 534 436 q 548 448 563 461 q 593 484 620 512 q 647 539 664 580 q 674 586 685 586 q 695 586 707 581 q 719 576 729 571 q 732 569 735 568 q 737 567 739 566 q 739 557 747 550 q 751 547 752 546 q 753 545 755 544 q 770 536 773 528 q 780 506 798 494 q 796 484 798 476 q 801 468 805 459 q 806 456 807 453 q 808 450 810 446 l 791 448 l 794 430 q 796 416 792 399 q 787 383 781 373 q 782 348 783 333 q 783 319 781 307 q 779 295 776 284 q 772 273 767 261 q 771 198 752 147 q 734 96 715 51 q 713 46 710 41 q 708 36 706 31 q 697 28 690 25 q 684 21 676 18 z"},"#":{"x_min":0,"x_max":703,"ha":703,"o":"m 623 279 q 646 274 649 267 q 653 259 646 250 q 640 240 627 230 q 614 221 603 214 q 592 216 580 210 q 567 205 557 198 q 544 200 531 200 q 518 200 504 200 q 497 181 489 163 q 480 145 467 132 q 466 127 469 123 q 473 119 475 114 q 464 105 459 96 q 455 86 454 75 q 452 64 452 55 q 451 45 447 36 q 438 32 432 26 q 425 21 418 15 q 412 9 404 4 q 396 0 385 -2 q 364 5 352 11 q 339 18 322 25 q 309 43 307 62 q 306 82 312 102 q 317 121 327 139 q 337 156 346 170 q 353 184 357 194 q 335 195 312 194 q 289 192 265 189 q 259 173 250 158 q 242 143 230 131 q 229 126 233 122 q 237 118 239 113 q 229 104 224 95 q 220 85 218 75 q 217 64 216 54 q 215 44 211 36 q 202 32 196 26 q 189 21 183 15 q 176 9 168 4 q 160 0 148 -2 q 128 5 116 11 q 104 18 86 25 q 72 42 71 62 q 70 82 76 102 q 82 121 92 139 q 102 156 110 170 q 99 170 86 169 q 74 169 62 168 q 48 176 41 188 q 34 199 32 212 q 29 226 30 239 q 30 253 30 267 q 34 277 43 283 q 53 289 63 294 q 93 295 116 296 q 140 298 162 300 q 163 302 164 305 q 164 308 165 310 q 164 323 171 345 q 179 367 188 393 q 172 390 160 388 q 148 386 141 384 q 117 385 106 391 q 95 396 89 405 q 83 413 81 423 q 79 434 75 445 q 83 453 85 467 q 88 480 79 487 q 89 489 97 499 q 104 508 103 513 q 133 518 165 518 q 197 519 227 521 q 237 541 246 573 q 254 604 264 636 q 274 668 290 692 q 305 717 328 722 q 357 694 373 664 q 388 633 397 591 q 395 581 389 566 q 383 552 375 532 q 398 533 422 533 q 445 533 468 534 q 477 556 484 586 q 492 616 502 645 q 513 674 527 695 q 542 717 564 722 q 593 695 608 664 q 624 633 633 591 q 630 581 624 565 q 617 549 609 528 q 625 527 640 525 q 654 522 666 518 q 678 514 685 506 q 691 499 692 487 q 710 485 716 480 q 723 476 723 469 q 724 462 720 454 q 716 445 713 438 q 686 426 647 419 q 608 413 564 410 q 554 379 546 354 q 538 329 537 316 l 580 316 q 579 308 587 304 q 595 300 604 297 q 612 295 619 292 q 626 288 623 279 z m 300 311 q 319 312 346 313 q 372 314 400 315 q 402 331 411 355 q 419 380 430 406 q 400 406 375 406 q 349 406 327 405 q 316 375 309 351 q 302 327 301 315 z"},",":{"x_min":0,"x_max":204,"ha":204,"o":"m 9 146 q 15 141 29 134 q 43 128 59 122 q 74 115 88 110 q 102 105 107 104 q 118 85 120 70 q 121 55 124 38 q 119 33 118 22 q 116 11 116 6 q 115 -2 112 -3 q 109 -5 107 -12 q 106 -14 108 -18 q 110 -21 109 -23 q 108 -28 105 -29 q 102 -29 100 -34 q 96 -45 94 -47 q 93 -50 92 -50 q 92 -51 90 -52 q 89 -54 84 -63 q 77 -78 67 -92 q 58 -106 55 -120 q 41 -132 21 -150 q 1 -168 -17 -175 q -25 -171 -44 -162 q -63 -153 -81 -143 q -98 -132 -106 -119 q -115 -106 -104 -96 q -87 -77 -74 -51 q -61 -25 -51 4 q -41 34 -34 66 q -26 98 -20 127 q -16 123 -12 125 q -8 126 -4 129 q 0 133 3 138 q 6 143 9 146 z"},"n":{"x_min":0,"x_max":564,"ha":564,"o":"m 200 178 q 191 176 188 167 q 184 159 180 150 q 177 142 173 134 q 170 127 163 127 q 162 119 158 113 q 153 107 149 101 q 146 95 144 87 q 142 80 146 70 q 138 64 136 54 q 134 43 131 33 q 129 23 123 17 q 117 10 102 11 q 99 7 101 6 q 103 5 104 -1 q 93 1 87 -2 q 82 -6 74 -7 q 56 -1 43 14 q 31 28 22 46 q 13 64 5 83 q -2 102 -9 115 q -6 126 -8 136 q -10 146 -15 153 q 33 255 90 370 q 146 485 197 598 q 220 589 242 578 q 264 566 282 552 q 300 537 312 518 q 325 499 329 476 q 327 470 325 471 q 322 473 320 470 q 324 465 325 463 q 325 461 325 459 q 324 457 324 454 q 324 450 327 444 q 323 445 322 443 q 320 441 315 443 q 319 433 318 426 q 316 419 313 414 q 311 408 309 402 q 307 396 310 386 q 307 386 305 384 q 304 383 303 381 q 302 380 300 378 q 299 377 296 378 q 299 356 298 335 q 297 313 296 292 q 296 270 297 246 q 298 222 304 196 q 339 217 360 249 q 381 281 394 321 q 407 361 414 407 q 421 453 429 501 q 438 510 442 522 q 447 535 451 549 q 455 563 459 578 q 463 592 469 604 q 483 602 494 594 q 504 587 513 579 q 521 570 531 563 q 541 556 556 554 q 567 537 577 521 q 587 506 590 488 q 585 480 583 471 q 580 461 577 451 q 574 441 569 433 q 564 425 556 419 q 553 394 548 373 q 544 352 540 331 q 535 311 532 289 q 529 267 530 240 q 522 218 514 192 q 505 167 500 146 q 484 134 476 116 q 467 99 457 81 q 453 77 452 79 q 451 81 445 82 q 446 78 445 76 q 444 74 443 73 q 441 71 441 68 q 440 65 442 61 q 429 55 418 44 q 407 33 395 24 q 383 16 366 13 q 349 10 321 20 q 281 49 250 87 q 220 125 200 178 z"},"h":{"x_min":0,"x_max":582,"ha":582,"o":"m 500 95 q 502 69 494 53 q 486 36 473 24 q 459 13 441 6 q 424 -1 407 -7 q 399 -2 392 3 q 385 9 375 12 q 362 35 351 53 q 339 71 340 95 q 340 96 341 105 q 343 115 345 127 q 348 139 349 149 q 351 159 351 160 q 328 158 304 150 q 279 143 256 132 q 233 121 213 110 q 193 100 181 92 q 181 89 177 78 q 173 66 167 54 q 161 42 154 32 q 147 22 141 22 q 142 20 144 17 q 146 14 144 9 q 130 5 119 -1 q 108 -8 97 -12 q 85 -17 71 -17 q 58 -17 39 -7 q 39 -1 34 3 q 29 8 24 11 q 19 15 15 17 q 11 20 11 21 q 6 21 7 28 q 8 36 15 32 q 4 46 1 56 q -1 66 -10 82 q -8 84 -6 89 q -5 94 -4 98 q -3 102 -1 104 q 1 105 4 103 q 2 111 4 117 q 6 123 8 128 q 10 133 11 138 q 12 143 8 148 q 23 170 28 195 q 33 220 34 240 q 41 247 46 260 q 52 272 55 286 q 58 299 57 311 q 57 323 54 331 q 55 336 64 334 q 70 366 73 407 q 75 447 81 484 q 87 521 101 548 q 114 576 145 585 q 150 564 160 549 q 169 533 180 519 q 191 505 203 490 q 214 476 224 457 q 223 438 220 414 q 217 390 212 364 q 208 339 204 315 q 199 292 195 275 q 196 271 201 270 q 205 269 202 261 q 226 267 251 271 q 276 276 302 282 q 327 288 351 295 q 375 303 396 313 q 400 352 408 390 q 416 428 410 468 q 415 472 418 478 q 421 483 428 485 q 423 504 424 524 q 425 545 431 563 q 438 582 450 595 q 462 608 479 612 q 490 597 498 579 q 506 561 514 542 q 522 524 532 508 q 541 492 556 480 q 559 452 560 422 q 562 392 562 360 q 555 323 545 289 q 536 254 532 215 q 525 207 521 197 q 518 188 514 177 q 510 167 505 158 q 500 148 493 142 q 497 130 495 120 q 492 109 500 95 z"},"z":{"x_min":0,"x_max":548,"ha":548,"o":"m 105 -38 q 101 -36 95 -34 l 83 -13 l 67 -24 q 61 -21 57 -17 q 53 -14 48 -9 q 37 -1 29 7 q 21 16 21 23 l 20 33 l 10 35 q 5 49 2 55 q -1 62 -8 65 q -14 114 -4 147 q 6 180 25 217 q 37 221 46 228 q 56 234 63 241 q 71 248 79 253 q 87 259 94 260 l 103 265 q 119 284 143 299 q 166 314 191 330 q 212 342 233 355 q 254 368 271 384 q 278 383 284 387 q 288 392 288 399 q 290 401 292 403 q 295 404 297 406 q 304 411 315 418 q 327 425 331 436 l 353 456 l 323 455 q 301 454 276 452 q 251 450 233 448 q 219 446 203 446 q 188 445 169 444 q 139 464 125 502 q 112 541 124 578 q 131 579 136 582 q 141 584 146 586 q 154 587 157 586 q 160 585 165 585 q 192 590 210 591 q 229 593 244 593 q 261 593 276 591 q 292 590 307 585 q 341 585 376 588 q 411 591 448 583 q 475 592 500 588 q 526 584 546 564 q 547 548 554 540 q 562 531 573 527 q 581 499 575 478 q 568 456 554 439 q 539 423 519 410 q 499 396 479 385 q 474 376 465 371 q 457 365 450 357 q 418 316 376 286 q 335 255 291 227 q 260 206 229 185 q 198 164 170 140 l 160 131 l 169 121 q 181 109 196 109 q 205 109 213 112 q 222 114 229 117 q 237 119 243 122 q 249 124 254 124 l 267 124 q 274 129 282 132 q 290 135 298 137 q 306 139 312 141 q 319 143 327 147 q 349 147 368 153 q 387 159 406 167 q 418 172 429 176 q 440 180 452 182 q 456 177 461 173 q 467 170 472 167 q 484 159 485 152 l 488 125 l 507 144 q 519 134 520 122 q 521 109 517 90 q 485 59 438 41 q 392 23 339 7 q 328 4 317 1 q 306 -2 295 -6 l 296 11 l 274 -3 q 271 -6 268 -9 q 266 -12 264 -15 q 238 -21 222 -24 q 205 -27 190 -30 q 174 -34 159 -37 q 145 -39 128 -39 q 123 -39 117 -39 q 111 -39 105 -38 z"},"B":{"x_min":0,"x_max":687,"ha":687,"o":"m 81 472 q 40 488 13 519 q -14 549 -30 590 q -21 616 1 634 q 22 652 49 665 q 76 678 106 686 q 137 693 165 699 q 171 697 171 699 q 171 701 176 697 q 211 708 257 718 q 303 729 354 726 q 361 729 371 730 q 381 730 392 730 q 402 730 412 731 q 422 731 429 734 q 435 728 446 726 q 458 725 471 716 q 475 715 471 719 q 467 724 472 726 q 484 726 494 720 q 504 714 512 707 q 521 699 528 693 q 535 688 544 688 q 553 677 565 667 q 577 658 588 648 q 600 639 607 627 q 614 615 614 601 q 613 595 618 594 q 623 593 625 588 q 626 552 614 525 q 602 499 583 477 q 564 455 543 436 q 522 416 505 394 q 517 379 532 367 q 547 354 562 343 q 578 331 592 318 q 606 305 616 288 q 619 282 629 280 q 632 269 637 256 q 643 244 647 233 q 652 222 653 213 q 654 204 648 198 q 655 194 656 186 q 657 178 656 173 q 635 146 627 136 q 619 125 615 120 q 611 115 607 111 q 604 107 590 96 q 538 64 482 40 q 426 15 365 6 q 360 -1 351 -5 q 342 -10 330 -13 q 318 -16 305 -18 q 292 -20 281 -21 q 276 -20 276 -15 q 275 -11 271 -9 q 270 -21 260 -21 q 251 -21 237 -17 q 224 -12 209 -3 q 194 6 184 14 q 179 5 171 -5 q 164 -15 156 -19 q 143 -17 136 -16 q 130 -15 124 -21 q 116 -17 112 -12 q 108 -8 104 -3 q 101 1 96 4 q 91 8 81 11 q 83 16 78 26 q 73 36 64 38 q 69 46 61 58 q 52 70 47 86 q 48 93 48 100 q 49 107 50 114 q 52 120 55 125 q 58 130 64 132 q 63 145 57 156 q 65 163 68 173 q 71 184 74 194 q 76 205 80 215 q 84 226 93 232 q 91 235 89 237 q 87 239 87 244 q 102 269 107 286 q 113 303 117 319 q 120 335 124 354 q 128 372 140 400 q 139 418 144 432 q 148 445 154 458 q 159 472 162 486 q 165 501 161 521 q 145 519 137 509 q 130 499 128 482 q 119 475 105 475 q 92 476 81 472 z m 511 283 q 474 304 443 308 q 412 312 384 307 q 356 303 331 295 q 306 287 280 283 q 268 250 254 210 q 240 170 228 132 q 263 137 292 146 q 321 156 349 168 q 376 181 402 193 q 429 205 457 216 q 460 228 470 234 q 479 241 489 248 q 499 254 506 262 q 513 270 511 283 z m 442 589 q 382 591 323 578 q 265 565 225 541 q 244 524 265 512 q 286 499 297 478 q 344 496 379 525 q 414 554 442 589 z"},"K":{"x_min":0,"x_max":776,"ha":776,"o":"m 20 179 q 21 183 21 185 q 21 187 18 189 q 16 196 21 198 q 25 200 30 202 q 35 261 50 309 q 65 357 83 403 q 102 449 120 496 q 138 542 149 597 q 162 609 170 627 q 179 645 187 663 q 195 681 207 697 q 218 714 237 725 q 246 724 253 721 q 261 719 268 716 q 274 713 282 711 q 290 709 299 709 q 303 704 306 698 q 309 691 313 687 l 331 689 q 344 679 354 663 q 363 646 367 629 q 371 612 366 596 q 361 580 344 571 q 345 565 344 562 q 343 560 341 557 q 340 555 340 552 q 340 550 344 546 q 333 537 324 524 q 315 511 310 496 q 304 481 300 467 q 297 452 296 439 q 324 469 362 494 q 400 520 429 542 q 451 558 468 572 q 485 586 503 598 q 521 610 540 622 q 559 633 578 646 q 588 650 593 648 q 599 646 604 644 q 604 650 601 652 q 597 653 598 661 q 614 666 627 673 q 641 680 655 686 q 665 675 675 663 q 685 650 701 649 q 707 637 715 630 q 724 624 732 618 q 740 612 746 604 q 752 596 753 578 q 749 570 744 561 q 738 552 734 538 q 711 517 687 500 q 663 484 638 470 q 613 455 587 439 q 562 424 535 403 q 529 395 521 388 q 512 381 502 375 q 493 368 485 361 q 477 354 472 345 q 468 345 465 344 q 462 344 458 343 q 454 335 447 330 q 439 325 437 317 q 454 279 482 260 q 511 240 546 231 q 581 223 622 222 q 663 221 707 221 q 712 222 711 226 q 711 230 717 229 q 731 225 741 218 q 751 211 760 203 q 769 195 777 187 q 785 179 796 170 q 794 124 769 95 q 744 66 703 49 q 646 47 604 52 q 562 57 521 73 q 519 74 516 79 q 514 84 512 86 q 504 91 494 90 q 484 89 478 92 q 469 96 449 109 q 429 123 412 135 q 392 151 373 167 q 354 184 339 203 q 336 208 331 208 q 325 208 320 211 q 286 189 263 158 q 240 126 219 93 q 197 61 173 32 q 149 3 113 -13 q 103 -13 95 -9 q 87 -6 80 0 q 73 5 66 10 q 60 15 51 17 q 51 30 45 42 q 40 55 35 65 q 29 75 27 85 q 24 95 32 104 q 21 113 12 119 q 19 126 18 132 q 18 138 15 144 q 12 149 10 156 q 9 162 14 170 q 18 171 17 174 q 17 177 20 179 z"},"R":{"x_min":0,"x_max":646,"ha":646,"o":"m 27 84 q 22 83 19 91 q 15 100 10 107 l 21 107 q 14 129 17 147 q 21 165 25 182 q 30 199 34 215 q 37 231 30 249 q 35 246 38 251 q 40 257 42 265 q 43 273 42 283 q 42 292 41 298 q 54 328 61 360 q 68 393 74 424 q 80 456 87 486 q 95 516 106 542 q 120 544 135 539 q 150 533 155 525 q 186 549 209 582 q 232 615 256 647 q 280 679 311 703 q 341 728 386 732 q 409 716 438 697 q 468 678 486 649 q 494 645 501 639 q 509 634 517 629 l 517 614 q 530 602 540 584 q 549 567 556 548 q 563 529 570 510 q 577 490 586 474 q 584 468 584 463 q 585 459 586 455 q 588 450 589 445 q 590 439 590 432 q 586 380 556 348 q 526 316 484 296 q 441 276 394 262 q 346 248 307 231 q 307 228 311 228 q 315 228 313 222 q 343 204 359 193 q 375 183 389 175 q 403 168 420 163 q 438 158 468 151 q 498 145 515 140 q 532 136 546 133 q 560 131 575 129 q 591 127 617 124 q 628 113 635 99 q 642 84 645 69 q 647 55 646 42 q 645 28 638 21 q 639 17 643 17 q 647 18 652 17 q 646 12 641 5 q 636 -2 631 -9 q 626 -16 620 -21 q 613 -27 604 -28 q 568 -42 514 -29 q 459 -17 374 16 q 332 31 306 44 q 279 57 260 69 q 240 81 224 95 q 207 109 186 129 q 183 128 182 125 q 182 122 179 121 q 174 82 164 58 q 153 33 134 8 q 118 11 113 5 q 107 -1 100 -6 q 90 -8 85 -5 q 80 -3 76 0 q 72 3 67 6 q 62 9 52 8 q 49 17 46 25 q 43 33 30 32 q 33 41 32 47 q 31 54 29 59 q 27 64 26 70 q 24 76 27 84 z m 354 530 q 341 512 325 497 q 310 481 294 465 q 279 449 268 430 q 256 411 251 385 q 292 390 337 408 q 382 426 422 442 q 417 479 396 500 q 376 522 354 530 z"},"T":{"x_min":0,"x_max":607,"ha":607,"o":"m 21 551 q 21 559 18 565 q 16 571 13 579 q 8 591 4 604 q 0 618 0 637 q 2 646 5 651 q 8 655 11 658 l 15 676 l 29 676 q 37 675 45 675 q 54 675 62 675 q 99 675 138 678 q 177 681 218 685 q 263 690 314 693 q 319 704 321 707 q 322 710 324 714 l 335 720 q 357 721 366 714 q 375 708 380 702 q 405 704 432 708 q 458 711 486 715 q 525 720 565 725 q 605 729 644 729 q 660 729 675 729 q 689 728 703 726 l 715 717 q 719 710 725 704 q 730 698 738 692 q 753 681 767 663 q 781 646 777 611 l 772 602 q 769 598 763 594 l 753 581 l 742 581 q 732 581 728 580 q 723 578 716 575 q 712 573 707 572 q 702 570 696 568 q 686 569 680 569 q 674 569 666 569 q 637 569 603 565 q 568 562 536 557 q 513 554 491 551 q 470 549 452 547 q 442 521 435 502 q 427 482 418 463 q 409 443 401 423 q 394 403 387 379 q 375 361 367 345 q 359 329 354 309 q 340 292 333 272 q 327 253 322 239 l 318 225 q 312 218 310 214 q 309 210 305 205 q 302 192 297 181 q 295 176 293 170 q 291 165 292 162 q 290 151 286 146 q 286 140 285 134 q 284 128 283 122 q 281 115 280 110 q 279 104 281 100 q 284 96 287 92 q 290 88 292 82 q 294 80 297 79 q 300 78 302 76 q 310 69 316 68 l 326 57 q 332 21 315 2 q 298 -21 257 -21 l 243 -20 q 236 -13 235 -11 q 227 -7 221 -4 q 215 -2 210 5 q 208 7 205 7 q 202 8 200 10 q 190 13 185 17 l 174 22 q 175 32 175 36 q 167 47 163 60 q 158 72 155 86 q 152 97 150 105 q 147 114 143 121 q 141 189 155 236 q 170 282 188 326 q 197 350 206 374 q 215 398 222 424 l 232 435 q 239 440 241 441 q 241 454 246 466 q 251 479 257 491 q 261 499 264 507 q 268 515 269 521 q 262 521 256 520 q 251 520 245 519 q 232 516 221 516 q 212 516 208 517 q 200 513 193 512 q 187 512 180 512 l 168 512 l 156 512 q 145 512 138 509 q 124 509 120 509 q 116 509 111 509 l 100 509 l 88 509 q 80 509 70 510 q 61 512 50 518 l 43 525 q 37 536 32 537 l 21 540 z"},"P":{"x_min":0,"x_max":640,"ha":640,"o":"m 44 275 q 45 279 48 279 q 52 278 55 279 q 47 287 45 300 q 43 313 35 322 q 37 327 39 332 q 40 337 47 336 q 44 357 48 376 q 52 395 60 411 q 68 428 80 444 q 91 460 102 477 q 110 479 112 475 q 114 472 119 477 q 135 487 141 500 q 146 514 146 529 q 155 555 167 580 q 178 604 192 626 q 207 647 224 664 q 240 680 260 688 q 273 700 294 710 q 315 720 339 725 q 363 730 389 731 q 414 731 436 726 q 440 724 441 728 q 442 732 446 732 q 495 727 534 713 q 572 699 600 675 q 618 646 635 612 q 651 578 661 542 q 670 505 669 466 q 668 427 652 388 q 618 345 569 319 q 521 293 464 276 q 408 259 348 248 q 288 237 231 225 q 232 198 231 168 q 230 139 225 109 q 220 79 209 51 q 199 22 182 -2 q 162 -1 141 -6 q 120 -11 104 -16 q 96 -11 88 -6 q 81 -2 70 -1 q 73 11 65 23 q 57 36 48 48 q 40 61 38 73 q 35 85 49 95 q 41 102 41 116 q 45 112 51 112 q 49 130 55 154 q 62 179 66 203 q 70 227 67 247 q 64 267 44 275 z m 298 504 q 294 493 292 485 q 289 477 286 470 q 283 463 280 456 q 276 449 272 440 q 274 435 280 432 q 286 429 288 423 q 302 430 315 433 q 329 437 343 438 q 356 440 370 443 q 384 446 398 453 q 413 460 429 464 q 445 469 461 474 q 477 479 491 485 q 506 491 517 502 q 503 515 476 524 q 448 534 417 537 q 385 539 353 532 q 321 525 298 504 z"},"|":{"x_min":0,"x_max":332,"ha":332,"o":"m 229 313 q 221 295 214 269 q 207 242 199 215 q 191 188 181 163 q 170 138 154 121 q 152 116 156 112 q 159 107 161 103 q 150 94 146 83 q 141 72 139 62 q 137 51 136 40 q 135 29 131 21 q 123 17 116 11 q 109 5 103 -1 q 97 -7 89 -12 q 81 -17 70 -19 q 51 -12 40 -4 q 28 3 13 11 q 1 28 0 49 q 0 69 6 90 q 13 110 23 129 q 33 147 42 161 q 49 177 56 192 q 62 208 70 228 q 78 248 86 269 q 94 290 100 307 q 100 324 111 354 q 122 385 135 417 q 147 450 157 479 q 167 508 163 521 q 175 539 185 573 q 194 607 206 642 q 218 677 233 705 q 249 732 272 738 q 299 710 312 678 q 325 646 332 602 q 327 588 318 565 q 310 542 298 514 q 287 485 275 455 q 264 425 253 397 q 243 369 236 347 q 229 325 229 313 z"},"t":{"x_min":0,"x_max":479,"ha":479,"o":"m 556 470 q 531 470 503 466 q 475 463 447 459 q 428 456 410 454 q 392 452 377 451 q 370 430 363 413 q 356 396 349 381 q 341 364 334 347 q 328 330 322 311 q 312 295 306 282 q 300 269 296 252 q 284 237 278 221 q 272 205 270 193 l 266 182 q 260 176 259 172 q 258 169 254 166 q 253 155 247 145 q 245 140 244 135 q 243 131 243 129 q 243 119 238 116 q 239 111 238 106 q 237 101 236 96 q 233 84 234 77 q 237 73 240 70 q 242 67 243 62 q 249 59 252 58 q 256 55 264 51 l 272 41 q 277 13 264 -4 q 249 -22 214 -22 l 202 -22 q 197 -18 196 -15 q 188 -12 184 -10 q 179 -8 175 -2 q 162 4 154 8 l 146 13 q 146 23 146 24 q 139 33 135 44 q 132 55 130 65 q 128 74 125 82 q 123 90 119 96 q 117 152 130 191 q 143 230 156 267 q 164 286 172 306 q 180 326 186 348 l 194 357 q 201 373 206 383 q 210 394 215 404 q 218 411 220 417 q 223 424 225 429 q 219 429 214 428 q 209 428 204 427 q 198 426 193 425 q 188 425 184 425 q 177 425 174 426 q 163 421 150 421 l 141 421 q 138 421 135 421 q 133 422 131 422 q 121 422 115 419 q 104 419 93 419 l 83 419 q 81 419 78 418 q 75 418 73 418 q 66 418 59 419 q 51 421 42 426 q 30 441 26 442 l 18 454 q 17 460 15 465 q 13 471 11 478 q 7 487 3 499 q 0 510 0 525 q 1 533 4 537 q 7 541 9 544 l 12 559 l 24 558 l 52 558 q 83 558 115 560 q 147 562 182 565 q 201 567 221 569 q 241 571 263 573 q 267 582 271 590 l 280 595 q 298 596 305 590 q 312 585 317 580 q 339 582 361 584 q 383 587 405 591 q 438 596 472 600 q 506 604 537 604 q 551 604 563 603 q 576 602 587 600 l 597 593 q 600 587 605 582 q 610 577 616 572 q 628 562 640 547 q 651 532 648 504 q 641 492 637 490 l 628 479 l 618 479 q 612 479 607 478 q 603 477 598 475 q 594 473 590 471 q 586 470 581 469 q 572 469 567 469 q 562 470 556 470 z"},"M":{"x_min":0,"x_max":974,"ha":974,"o":"m 88 -14 q 78 -14 58 -11 q 42 6 30 35 q 18 63 11 96 q 5 129 5 162 q 6 194 17 220 q 17 221 26 243 q 35 266 50 300 q 64 335 83 377 q 102 420 120 461 q 139 502 156 536 q 173 569 186 588 q 194 602 202 614 q 209 627 216 638 q 227 655 236 670 q 245 686 256 698 q 268 710 281 719 q 295 729 314 735 q 326 730 335 725 q 344 720 351 712 l 354 698 q 355 691 360 689 q 364 687 367 687 q 380 684 389 680 q 398 677 409 676 q 413 670 417 664 q 420 658 424 653 q 443 625 456 599 q 469 572 456 541 l 457 530 q 462 523 462 518 q 462 512 460 501 q 459 493 458 484 q 458 475 461 464 l 468 456 q 483 448 498 448 q 518 448 533 457 q 549 466 562 475 q 573 482 583 487 q 592 492 601 494 q 621 514 638 529 q 655 544 674 560 q 709 588 742 621 q 775 653 795 702 q 806 709 819 709 q 833 709 847 704 q 860 698 874 691 q 877 689 879 688 q 882 688 885 686 q 885 675 894 666 q 898 662 900 661 q 902 660 904 659 q 912 654 917 650 q 923 646 926 640 q 935 613 955 599 q 953 588 956 578 q 959 567 963 558 q 965 554 966 550 q 967 547 969 542 l 947 544 l 950 522 q 953 506 948 485 q 942 465 936 453 q 938 424 938 407 q 938 390 936 375 q 934 360 929 347 q 925 334 918 319 q 922 245 901 184 q 880 122 855 68 q 853 62 850 56 q 847 50 845 44 q 834 41 825 37 q 816 33 809 28 q 798 21 787 17 q 776 13 765 13 q 718 47 716 131 q 715 215 752 345 q 759 350 758 359 l 758 370 l 748 371 q 743 371 739 370 q 735 369 733 361 q 702 339 666 315 q 629 291 590 271 q 551 251 510 238 q 470 225 432 225 q 334 225 284 324 l 275 342 l 266 326 q 263 321 255 307 q 248 293 241 274 q 233 256 228 236 q 223 217 225 202 q 213 191 202 178 q 190 164 186 146 q 184 142 185 137 q 186 133 188 128 q 187 121 184 118 q 181 115 177 112 q 172 107 167 102 q 162 97 158 90 q 156 84 155 78 q 154 71 153 66 q 153 56 150 52 q 141 31 133 18 q 126 5 119 -2 q 112 -9 105 -11 q 98 -14 88 -14 z"},"g":{"x_min":0,"x_max":652,"ha":652,"o":"m 692 176 q 669 134 631 111 q 593 88 547 73 q 501 58 451 46 q 400 34 354 16 q 340 16 330 15 q 319 14 310 12 q 301 11 292 9 q 283 8 272 7 q 269 8 268 5 q 267 3 265 1 q 248 -2 235 -2 q 222 -2 213 -2 q 201 -2 189 -5 q 177 -9 167 -8 q 94 -4 52 44 q 11 93 6 179 q 7 184 4 185 q 2 186 0 188 q 0 197 2 204 q 5 211 3 222 q 28 275 61 322 q 93 368 138 403 q 145 409 149 415 q 154 421 159 427 q 163 433 169 437 q 175 441 184 443 q 204 467 232 486 q 261 506 292 524 q 323 542 354 560 q 385 578 410 601 q 421 596 426 598 q 431 600 437 598 q 443 583 456 577 q 468 571 480 565 q 492 559 503 550 q 514 541 520 526 q 514 526 514 522 q 515 518 517 513 q 519 509 518 504 q 518 500 511 500 q 512 495 517 495 q 522 494 522 489 q 522 484 520 481 q 518 479 520 472 q 500 459 476 447 q 452 436 426 422 q 400 409 373 394 q 345 379 318 359 q 292 340 265 316 q 237 292 212 266 q 187 239 164 211 q 142 184 126 156 q 128 151 130 149 q 133 146 135 142 q 166 140 193 142 q 220 145 247 139 q 250 141 251 145 q 252 148 256 150 q 312 156 359 168 q 407 181 457 194 q 449 197 443 200 q 437 202 431 204 q 426 209 431 212 q 437 216 440 220 q 427 228 418 239 q 410 251 408 271 q 414 275 414 282 q 414 289 408 293 q 404 294 403 293 q 402 292 402 290 q 401 288 400 287 q 399 285 396 287 q 396 296 400 302 q 403 308 405 315 l 473 360 q 483 353 499 343 q 515 334 532 325 q 549 315 567 306 q 585 297 601 288 q 614 282 625 272 q 636 263 646 252 q 655 242 666 232 q 676 223 689 216 q 688 203 690 195 q 693 188 692 176 z"},"j":{"x_min":0,"x_max":534,"ha":534,"o":"m 473 453 q 471 428 467 408 q 463 389 456 367 q 439 288 417 217 q 396 146 367 89 q 342 61 318 39 q 294 18 265 9 q 250 7 239 4 q 228 2 217 -1 q 212 -2 207 -3 q 201 -4 196 -6 q 182 -3 168 -1 q 155 0 145 0 l 132 4 q 122 7 117 9 q 111 11 107 12 q 103 14 97 15 q 92 16 80 17 q 65 11 53 11 q 35 11 15 25 q -6 40 -20 88 q -18 106 -14 121 q -11 135 -7 143 q 17 156 32 156 q 51 156 68 150 q 85 145 102 138 q 109 135 112 133 q 115 131 117 130 q 119 129 122 129 q 124 129 132 129 q 137 129 140 129 q 144 130 147 131 l 157 130 q 163 127 171 127 q 181 127 195 132 q 202 135 207 136 q 211 137 216 138 l 224 146 q 232 148 237 152 q 241 156 245 161 q 248 166 251 172 q 254 178 259 185 q 263 189 266 194 q 270 199 273 204 l 273 214 q 286 242 296 273 q 306 304 313 335 q 321 366 327 396 q 332 425 336 448 l 326 448 q 302 448 286 448 q 271 447 258 446 q 245 444 231 441 q 217 438 195 435 l 181 432 q 166 424 151 418 q 137 412 122 412 q 97 412 79 432 q 61 444 58 465 q 53 471 55 479 q 51 490 51 500 q 51 509 51 517 l 51 530 l 63 530 q 68 535 70 538 q 72 540 73 544 l 84 553 q 101 555 119 558 q 137 562 156 565 q 175 569 188 571 q 201 573 213 574 q 226 575 239 576 q 252 576 270 576 l 292 576 q 295 580 298 581 q 302 581 304 581 q 309 581 312 580 q 314 579 316 578 q 344 583 367 584 q 391 586 409 586 q 419 586 427 586 q 436 586 443 585 l 476 585 l 497 585 q 502 586 513 586 q 528 586 533 585 q 537 585 549 583 q 562 581 574 580 q 585 578 597 578 l 611 578 l 614 568 l 622 559 q 624 554 628 550 q 633 546 638 541 q 647 531 657 519 q 666 506 663 480 l 656 470 q 651 468 645 461 l 636 453 q 625 452 617 452 q 609 451 602 451 q 587 451 572 452 q 557 453 540 454 q 531 454 526 454 q 521 454 517 454 q 513 454 508 454 q 503 454 495 454 q 487 454 483 454 q 479 454 473 453 z"},"i":{"x_min":0,"x_max":320,"ha":320,"o":"m 207 68 q 212 39 204 22 q 195 6 180 -2 q 165 -11 146 -12 q 126 -13 108 -10 q 99 4 91 24 q 83 45 76 67 q 69 89 64 110 q 59 132 55 148 q 60 160 61 175 q 62 190 63 206 q 63 222 64 238 q 64 254 66 269 q 73 310 86 347 q 100 384 107 424 q 109 433 106 440 q 103 448 104 455 q 105 459 110 460 q 115 462 116 467 q 119 478 118 484 q 116 491 121 501 q 126 509 133 524 q 141 539 139 556 q 147 562 155 569 q 163 577 171 583 q 180 590 190 595 q 200 600 215 600 q 223 590 225 578 q 228 566 230 555 q 232 543 237 533 q 242 522 254 517 q 254 509 254 497 q 254 485 255 474 q 256 463 259 454 q 263 444 271 441 q 253 395 238 349 q 223 303 213 256 q 203 210 201 163 q 198 116 207 68 z"},"y":{"x_min":0,"x_max":400,"ha":400,"o":"m 312 256 q 306 250 301 242 q 296 233 291 225 q 286 214 280 204 q 274 194 266 187 q 261 172 256 164 q 251 155 240 145 q 230 105 194 60 q 193 51 189 42 q 185 34 180 26 q 178 23 176 20 q 174 17 173 15 l 171 5 q 166 -3 160 -9 q 154 -15 149 -20 q 147 -22 143 -27 l 128 -33 q 57 -23 41 43 l 42 53 q 44 58 45 63 q 47 68 49 74 q 53 88 58 102 q 63 115 74 126 q 76 133 83 148 q 90 163 106 193 q 120 217 128 230 q 136 244 141 252 q 131 268 117 280 q 104 305 95 327 q 86 350 81 367 q 80 380 78 389 q 76 397 74 407 q 71 418 69 429 q 67 439 67 451 q 62 458 62 465 l 63 475 q 66 481 64 493 q 62 504 60 516 q 58 525 55 537 q 53 549 54 561 q 55 572 60 583 q 65 593 78 601 l 95 602 q 104 597 112 592 q 120 588 128 583 q 139 578 148 573 q 158 568 169 561 l 176 547 l 188 536 l 188 525 q 189 521 189 515 q 189 502 193 499 l 197 487 q 197 474 200 461 q 203 449 206 438 q 209 428 212 416 q 215 404 213 391 q 219 394 223 397 q 225 399 227 400 q 229 401 230 403 l 288 481 l 286 491 l 307 511 q 314 519 322 525 q 329 532 334 540 l 345 548 q 376 597 434 608 l 447 610 l 451 598 q 455 587 467 578 q 479 569 493 562 l 502 556 q 507 546 507 541 q 507 536 506 532 l 510 522 q 502 499 491 488 q 479 478 469 469 q 460 461 453 455 q 445 448 441 438 l 435 431 q 414 419 408 399 l 405 388 l 394 388 q 393 388 389 384 q 386 381 379 367 q 372 357 369 354 q 366 352 364 350 q 363 346 362 342 q 360 339 358 334 q 346 321 343 315 q 340 309 336 301 q 332 293 329 286 q 325 278 317 271 z"},"@":{"x_min":0,"x_max":732,"ha":732,"o":"m 708 441 q 714 404 711 367 q 709 330 700 288 q 692 272 674 252 q 655 232 634 214 q 612 195 592 182 q 571 169 562 168 q 544 165 527 167 q 511 169 496 174 q 493 172 490 169 q 486 167 483 164 q 474 162 458 161 q 442 159 432 153 q 397 148 362 149 q 326 149 295 153 q 287 158 280 162 q 273 165 263 166 q 246 173 234 186 q 222 198 213 213 q 205 228 200 244 q 195 261 194 275 q 199 300 214 319 q 229 338 244 356 q 254 367 264 373 q 273 379 279 388 q 292 392 301 398 q 311 405 319 412 q 328 418 337 424 q 347 431 359 436 q 367 445 383 452 q 398 458 405 470 q 410 466 415 468 q 420 471 425 473 q 432 475 436 470 q 439 466 441 472 q 445 467 448 466 q 450 466 453 465 q 458 470 461 474 q 465 478 467 482 l 479 493 l 497 506 l 507 507 l 523 491 q 525 489 528 484 q 531 479 532 472 q 532 465 533 462 q 533 460 535 454 l 535 442 q 534 438 534 435 q 534 432 534 424 q 534 422 534 419 q 533 417 533 414 q 521 376 514 346 q 508 316 511 303 q 512 296 513 287 q 515 278 519 271 q 522 264 528 258 q 534 253 544 253 q 552 254 561 259 q 568 264 578 272 q 588 280 599 297 l 593 312 q 599 322 601 332 q 603 342 603 352 q 603 362 602 374 q 602 386 604 399 q 596 422 583 450 q 570 479 555 506 q 539 533 521 555 q 503 577 482 586 q 478 588 475 586 q 473 585 470 583 q 468 582 465 582 q 462 581 456 584 q 397 540 338 498 q 279 455 230 399 q 184 357 146 299 q 109 241 90 167 q 93 165 101 161 q 112 156 123 154 q 134 152 145 148 l 180 129 q 184 121 184 119 q 206 111 226 108 q 245 105 264 98 q 312 96 350 94 q 387 93 424 92 q 457 92 484 96 q 511 100 536 104 q 538 110 538 113 q 537 115 541 120 q 550 114 559 103 q 568 91 577 78 q 586 65 595 54 q 604 42 612 36 q 608 29 609 24 q 610 20 607 13 q 584 -7 553 -14 q 522 -21 487 -21 q 452 -21 414 -19 q 376 -17 340 -20 q 320 -15 309 -14 q 297 -13 280 -10 q 250 -9 236 -4 q 228 -2 219 -2 q 210 -2 202 0 q 178 7 159 20 q 139 26 117 39 q 96 52 76 67 q 56 82 39 99 q 21 116 10 131 q 10 146 7 158 q 5 169 2 179 q 0 189 -1 200 q -2 211 2 226 q -1 234 -4 243 q -7 251 -10 259 q -8 301 8 334 q 23 367 45 395 q 67 423 94 446 q 120 470 145 492 q 149 487 152 491 q 154 494 164 492 q 164 498 169 506 q 174 514 181 521 q 188 528 197 533 q 206 538 214 536 q 224 555 244 567 q 264 580 284 593 q 305 606 321 622 q 338 637 342 660 l 360 660 q 349 678 350 695 q 351 713 362 725 q 373 736 393 739 q 412 742 438 730 q 443 729 447 731 q 450 732 453 734 q 456 736 458 738 q 461 740 465 741 q 510 723 545 696 q 580 669 607 635 q 606 633 604 631 q 602 630 600 628 q 598 627 597 625 q 597 623 601 620 q 633 581 659 536 q 686 491 708 441 z m 341 266 q 359 264 378 265 q 397 267 417 269 q 404 292 407 322 q 408 326 409 329 q 409 332 409 335 q 410 339 411 343 q 412 348 413 354 q 404 349 396 344 q 388 339 383 332 q 365 324 355 313 q 346 303 335 292 q 336 287 334 285 q 333 282 331 279 q 333 274 335 271 q 338 269 341 266 z"},".":{"x_min":0,"x_max":229,"ha":229,"o":"m 143 116 q 145 108 146 102 q 146 95 148 87 q 145 77 142 68 q 139 59 136 50 q 133 43 132 41 q 131 39 131 38 q 131 37 131 36 q 132 34 132 27 l 128 16 q 123 9 116 5 q 109 1 103 -2 q 101 -4 97 -5 q 93 -7 91 -9 l 88 -21 l 75 -22 q 59 -26 47 -26 l 35 -26 q 23 -16 17 -10 q 10 -4 2 1 q -8 15 -9 21 q -10 27 -12 33 q -14 46 -17 50 l -30 63 l -19 72 l -29 91 q -18 100 -12 104 q -6 107 -2 112 q 2 116 7 123 q 12 130 22 146 l 31 158 l 44 151 q 48 148 61 146 q 74 144 84 142 q 101 137 115 134 q 130 132 139 124 z"},"p":{"x_min":0,"x_max":524,"ha":524,"o":"m 368 605 q 409 601 441 589 q 474 577 496 558 q 512 533 526 505 q 540 477 547 446 q 555 415 554 383 q 554 351 540 317 q 512 282 471 260 q 431 238 384 225 q 337 211 287 201 q 236 191 188 182 q 189 159 189 134 q 188 109 184 84 q 180 60 171 36 q 162 13 147 -7 q 131 -7 113 -11 q 96 -16 82 -19 q 75 -15 70 -11 q 64 -8 55 -7 q 57 3 50 13 q 43 23 36 34 q 29 45 27 55 q 24 64 36 73 q 29 80 29 91 q 36 103 42 123 q 47 144 50 164 q 54 184 52 200 q 50 217 32 225 q 33 227 36 227 q 39 227 42 228 q 34 233 33 244 q 31 255 25 263 q 27 268 28 271 q 29 275 35 274 q 32 292 36 308 q 39 323 46 337 q 53 352 62 365 q 72 379 81 393 q 88 394 89 391 q 91 388 96 392 q 108 401 113 412 q 118 423 118 437 q 125 457 135 478 q 145 499 156 517 q 168 534 182 548 q 196 562 212 568 q 224 578 241 586 q 259 595 279 599 q 300 604 321 604 q 342 604 359 600 q 364 598 365 602 q 365 605 368 605 z m 328 372 q 353 383 380 389 q 408 396 427 413 q 415 424 393 432 q 370 440 344 442 q 317 444 291 438 q 264 432 244 414 q 238 396 234 386 q 230 376 224 361 q 226 356 230 354 q 234 352 236 347 q 259 358 282 360 q 305 361 328 372 z"},"X":{"x_min":0,"x_max":623,"ha":623,"o":"m 51 -33 q 13 -5 -5 37 q -23 78 -10 119 q -8 149 5 177 q 19 205 38 230 q 57 256 79 278 q 102 301 121 320 q 125 332 135 341 q 145 350 156 358 q 167 366 178 376 q 189 386 196 398 q 192 412 184 426 q 175 439 164 453 q 153 467 142 480 q 130 494 120 509 q 119 514 113 512 q 106 510 104 513 q 105 528 97 546 q 89 564 75 577 q 80 589 84 607 q 89 626 82 647 q 81 657 84 666 q 88 675 92 683 q 96 690 98 698 q 100 705 97 713 q 111 715 124 711 q 136 708 146 704 q 156 699 166 696 q 175 693 184 697 q 182 691 183 689 q 185 687 187 685 q 189 684 192 683 q 194 682 194 678 q 213 672 235 652 q 257 633 277 609 q 298 586 314 563 q 331 540 339 527 q 367 545 400 569 q 433 594 467 619 q 502 645 538 667 q 573 690 607 704 q 627 695 638 682 q 649 668 657 653 q 664 638 670 623 q 677 607 688 596 q 678 576 667 563 q 656 550 651 531 q 627 521 593 500 q 563 481 519 449 q 474 417 412 364 q 427 348 436 333 q 445 318 451 308 q 458 295 462 284 q 473 276 479 266 q 486 255 493 244 q 499 232 507 223 q 515 213 527 207 q 531 189 537 174 q 543 159 548 145 q 554 130 557 116 q 561 102 560 87 q 552 61 536 43 q 521 25 514 7 q 503 4 493 0 q 482 -3 476 -10 l 409 37 q 392 96 358 149 q 325 203 294 242 q 247 206 204 162 q 161 118 126 68 q 124 44 120 28 q 116 12 107 1 q 99 -10 85 -18 q 71 -25 51 -33 z"},"*":{"x_min":0,"x_max":674,"ha":674,"o":"m 668 514 q 686 513 693 508 q 701 504 703 497 q 705 490 704 482 q 702 474 701 466 q 670 450 619 443 q 567 437 510 434 q 516 417 526 397 q 537 378 544 359 q 551 340 551 321 q 551 303 535 288 q 541 274 540 266 q 538 257 532 251 q 526 246 518 242 q 509 238 500 234 q 470 250 439 289 q 408 328 380 373 q 357 334 346 311 q 334 288 331 277 q 316 261 304 253 q 291 245 278 243 q 266 240 252 240 q 239 240 225 239 q 221 247 206 251 q 191 256 179 251 q 184 259 177 267 q 171 274 164 273 q 172 290 183 307 q 194 324 206 341 q 217 357 226 374 q 235 390 238 403 q 240 407 243 411 q 246 414 249 418 q 213 413 191 409 q 169 405 159 401 q 136 402 123 407 q 110 412 103 420 q 95 429 89 438 q 84 448 77 459 q 83 467 82 480 q 81 493 70 500 q 79 502 84 511 q 90 520 87 524 q 106 528 128 530 q 150 531 172 533 q 193 534 213 537 q 232 540 247 546 l 267 546 q 247 571 234 585 q 222 599 214 604 q 205 622 205 635 q 205 647 210 658 q 215 668 223 678 q 230 688 238 699 q 248 700 261 709 q 274 718 276 729 q 281 724 293 725 q 305 727 309 731 q 320 719 331 703 q 342 688 352 672 q 362 657 373 644 q 383 631 396 623 q 410 633 424 649 q 438 666 452 680 q 467 693 483 701 q 500 709 519 707 q 530 720 539 724 q 548 728 556 726 q 564 725 572 720 q 579 716 587 712 q 585 683 562 641 q 538 599 507 555 q 527 553 553 553 q 578 553 602 550 q 625 547 644 539 q 662 531 668 514 z"},"Y":{"x_min":0,"x_max":493,"ha":493,"o":"m 146 -32 q 60 -21 41 59 l 42 69 q 46 81 51 96 q 56 112 62 128 q 67 145 81 157 q 84 166 92 184 q 101 202 120 238 q 136 267 145 283 q 154 300 160 309 q 150 326 133 343 q 117 372 106 399 q 95 426 89 447 q 88 471 81 495 q 78 508 75 521 q 72 533 72 547 q 68 554 65 564 l 67 576 q 72 584 70 597 q 67 610 63 624 q 61 637 58 651 q 56 665 57 679 q 58 692 64 705 q 70 718 86 727 l 96 733 l 105 728 q 116 721 126 716 q 136 711 146 706 q 157 700 169 694 q 181 688 194 680 l 204 673 l 203 662 q 203 660 204 657 q 205 654 207 652 l 218 649 l 219 636 l 219 624 q 219 615 220 612 q 221 608 224 604 l 229 592 q 229 574 231 561 q 234 547 238 533 q 243 520 246 505 q 249 491 247 475 q 253 478 259 483 q 261 485 263 487 q 266 489 269 491 l 337 584 l 335 596 l 359 619 q 369 627 378 635 q 387 644 393 654 l 398 663 q 442 722 512 735 l 528 739 l 533 724 q 538 710 552 700 q 566 689 583 680 l 594 673 q 600 661 600 655 q 600 649 599 646 l 604 633 q 593 604 580 592 q 567 580 554 569 q 543 561 534 552 q 525 543 521 532 l 513 522 q 488 510 481 485 l 478 472 l 463 472 q 462 472 458 467 q 454 463 446 446 q 438 435 434 431 q 431 428 429 426 q 427 421 425 417 q 424 413 422 407 l 416 399 q 407 392 403 384 q 399 377 395 367 q 391 358 386 349 q 381 340 372 331 l 374 320 l 366 313 q 358 307 353 296 q 347 286 341 275 q 335 264 328 252 q 321 240 311 230 q 304 213 298 203 q 293 193 280 180 q 269 133 225 79 q 224 68 218 58 q 213 48 207 39 q 205 35 203 31 q 200 26 199 24 l 196 14 q 190 3 184 -4 q 178 -11 172 -17 q 169 -19 167 -21 q 164 -24 162 -26 z"},"c":{"x_min":0,"x_max":514,"ha":514,"o":"m 406 -2 q 391 -3 368 -1 q 345 1 325 -8 q 273 -6 220 5 q 166 16 121 31 q 111 42 102 51 q 92 61 75 64 q 52 83 37 110 q 22 137 14 167 q 5 197 2 229 q -1 261 0 290 q 15 334 42 366 q 68 397 97 429 q 109 435 116 441 q 122 447 129 453 q 137 458 144 463 q 151 469 157 477 q 178 481 193 491 q 208 500 223 510 q 237 521 253 529 q 269 538 289 543 q 297 552 308 557 q 318 562 330 568 q 341 573 351 579 q 361 585 367 595 q 372 587 381 589 q 390 592 397 595 q 402 596 406 593 q 409 590 412 587 q 415 584 417 583 q 420 583 422 588 q 427 588 425 583 q 423 578 422 576 q 430 577 435 573 q 440 568 452 567 q 456 562 454 560 q 452 558 452 552 q 481 543 489 524 q 497 505 490 484 q 483 464 466 446 q 448 429 428 423 q 381 410 339 395 q 298 380 271 351 q 248 344 230 333 q 212 321 196 307 q 180 293 166 278 q 151 263 136 248 q 137 234 131 227 q 126 220 121 212 q 123 197 128 186 q 133 175 139 164 q 203 145 276 140 q 349 135 422 134 q 429 124 438 116 q 447 107 455 98 q 463 89 468 78 q 473 66 470 50 q 456 35 439 23 q 423 11 406 -2 z"},"!":{"x_min":0,"x_max":261,"ha":261,"o":"m 270 672 q 270 663 267 650 q 265 638 263 625 q 261 612 262 602 q 263 592 271 589 q 253 537 247 502 q 240 467 236 435 q 231 403 225 368 q 218 333 200 282 q 189 251 174 239 q 158 227 141 227 q 123 227 104 236 q 86 246 70 258 q 67 276 70 303 q 72 330 76 359 q 80 389 84 416 q 88 442 90 461 q 100 472 104 479 q 107 485 109 493 q 110 501 111 513 q 112 524 116 546 q 118 557 115 565 q 111 573 113 581 q 115 585 120 587 q 124 589 125 594 q 129 606 127 614 q 125 621 130 632 q 135 640 142 657 q 149 674 147 692 q 156 699 164 708 q 172 717 180 724 q 188 731 199 736 q 209 741 224 741 q 231 730 235 721 q 239 711 243 702 q 246 693 252 686 q 258 678 270 672 z m 173 116 q 175 108 176 102 q 177 95 178 87 q 172 66 165 50 q 162 43 161 41 q 160 39 160 38 q 160 37 161 36 q 162 34 162 27 l 157 16 q 152 9 146 5 q 140 1 133 -2 q 130 -4 126 -5 q 123 -7 121 -9 l 118 -21 l 104 -22 q 89 -26 76 -26 l 65 -26 q 54 -16 47 -10 q 40 -4 31 1 q 21 20 19 33 q 17 46 14 50 l 0 63 l 12 72 l 0 91 q 12 100 18 104 q 23 107 28 112 q 32 116 37 123 q 42 130 53 146 l 62 158 l 73 151 q 78 148 91 146 q 104 144 114 142 q 130 137 145 134 q 160 132 169 124 z"},"/":{"x_min":0,"x_max":401,"ha":401,"o":"m 283 548 q 301 561 321 589 q 342 618 365 646 q 388 675 412 696 q 436 717 460 714 q 476 679 477 644 q 478 609 470 565 q 461 555 444 536 q 428 518 408 495 q 388 472 366 447 q 345 423 326 400 q 307 378 292 359 q 278 341 273 330 q 260 315 237 289 q 214 263 189 233 q 165 204 142 176 q 119 148 104 130 q 104 125 107 121 q 111 117 113 112 q 103 103 101 94 q 99 86 100 77 q 101 68 103 60 q 104 52 104 42 q 97 36 92 28 q 88 21 83 13 q 79 6 73 -1 q 66 -8 57 -13 q 36 -11 23 -7 q 11 -4 -7 -1 q -23 13 -29 33 q -35 53 -35 74 q -34 95 -30 116 q -25 137 -21 152 q -10 159 -20 162 q -16 176 -6 185 q 4 194 4 201 q 11 212 30 234 q 50 256 73 281 q 96 307 117 331 q 139 354 150 368 q 156 384 177 409 q 198 434 221 460 q 244 486 263 510 q 282 533 283 548 z"},"[":{"x_min":0,"x_max":388,"ha":388,"o":"m 407 -31 q 425 -36 430 -45 q 435 -54 433 -64 q 431 -75 423 -86 q 416 -98 410 -106 q 400 -104 393 -110 q 386 -116 380 -124 q 353 -120 326 -123 q 300 -126 277 -129 q 273 -129 274 -133 q 274 -138 271 -139 q 242 -129 212 -131 q 182 -134 150 -141 q 119 -147 86 -156 q 53 -164 20 -165 q 7 -156 -1 -143 q -9 -130 -14 -115 q -20 -100 -23 -83 q -26 -67 -30 -53 q -30 -42 -26 -36 q -21 -29 -17 -24 q -3 32 17 89 q 37 146 51 201 q 63 249 76 291 q 88 332 99 371 q 109 409 120 447 q 131 485 141 526 q 149 560 158 590 q 166 620 173 650 q 181 681 188 713 q 195 746 202 786 q 200 799 201 805 q 201 812 200 818 q 197 835 189 843 q 197 845 201 855 q 204 866 201 871 q 217 876 235 877 q 253 879 271 880 q 288 882 304 884 q 319 887 331 894 q 380 896 433 898 q 485 900 530 902 q 547 897 569 897 q 592 896 613 894 q 635 891 652 881 q 670 872 677 849 q 691 847 698 841 q 704 836 707 828 q 709 819 708 810 q 707 801 707 791 q 690 778 666 771 q 641 765 611 761 q 582 757 550 755 q 518 753 488 752 q 458 752 432 751 q 406 750 389 748 q 375 746 363 745 q 351 743 340 741 q 330 697 318 648 q 307 599 294 549 q 282 500 271 453 q 259 406 249 368 q 239 329 233 301 q 228 273 227 263 q 212 217 202 184 q 191 151 183 123 q 175 94 167 65 q 158 37 146 -1 q 162 2 192 5 q 218 7 259 9 q 301 11 365 11 q 367 1 374 -3 q 381 -8 388 -11 q 396 -14 401 -18 q 407 -21 407 -31 z"},"6":{"x_min":0,"x_max":501,"ha":501,"o":"m 438 297 q 448 291 454 282 q 460 273 467 266 q 467 247 470 223 q 474 198 470 175 q 450 144 427 116 q 403 89 369 71 q 364 70 366 64 q 368 58 363 56 q 355 56 352 51 q 348 47 341 53 q 330 46 318 41 q 307 35 298 27 q 289 28 282 26 q 275 24 269 22 q 262 20 255 18 q 248 16 241 18 q 210 2 172 -8 q 134 -18 91 -11 q 62 -6 40 11 q 19 27 6 52 q -7 77 -10 109 q -13 141 -4 175 q -6 178 -6 183 q -7 188 -7 192 q -7 197 -7 202 q -7 207 -10 209 q -4 219 0 229 q 5 239 0 253 q 5 254 7 258 q 9 263 10 269 q 12 274 13 279 q 15 284 19 287 q 21 313 28 337 q 36 360 46 382 q 57 404 68 426 q 80 447 91 470 q 87 478 88 480 q 90 482 91 491 q 105 516 120 543 q 135 571 151 599 q 168 627 187 653 q 205 679 229 698 q 244 701 259 708 q 273 715 288 720 q 303 725 318 726 q 333 728 351 720 q 353 711 352 707 q 352 703 354 698 q 369 690 372 673 q 374 655 376 639 q 388 633 393 621 q 397 609 400 595 q 389 583 378 572 q 368 562 357 554 q 354 552 347 552 q 340 553 338 554 q 309 541 287 520 q 265 499 249 473 q 232 446 221 417 q 210 388 203 359 q 175 317 157 272 q 140 228 128 172 q 129 164 136 165 q 144 166 150 165 q 162 186 166 204 q 169 223 169 247 q 180 266 192 282 q 205 299 216 318 q 231 330 245 339 q 259 348 272 354 q 286 360 302 366 q 318 371 341 375 q 364 373 381 365 q 398 357 410 346 q 422 335 429 322 q 436 309 438 297 z"},"r":{"x_min":0,"x_max":541,"ha":541,"o":"m 157 102 q 146 62 138 42 q 130 22 113 1 q 101 3 96 -2 q 91 -7 85 -11 q 76 -13 72 -11 q 68 -9 65 -6 q 62 -4 58 -1 q 54 1 45 1 q 43 9 41 16 q 38 22 27 21 q 29 28 28 34 q 27 39 26 43 q 24 48 23 52 q 22 57 24 63 q 20 63 17 70 q 14 77 10 84 q 13 102 16 117 q 19 133 23 146 q 27 160 30 174 q 33 188 27 202 q 31 199 33 204 q 35 208 36 215 q 37 223 37 230 q 37 237 36 242 q 46 268 52 294 q 59 321 64 348 q 69 374 75 399 q 81 425 91 446 q 102 448 115 444 q 128 439 131 433 q 156 452 176 480 q 195 508 216 534 q 236 561 261 581 q 286 602 324 605 q 344 591 368 576 q 392 561 407 536 q 415 532 420 528 q 426 523 434 519 l 434 507 q 445 496 453 482 q 460 468 466 452 q 472 436 478 419 q 483 403 491 389 q 489 384 489 380 q 489 377 491 373 q 492 369 493 365 q 494 361 493 354 q 490 312 465 285 q 440 259 405 242 q 370 225 330 213 q 290 201 258 188 q 258 184 261 184 q 265 184 264 179 q 287 164 301 155 q 314 146 327 141 q 339 135 353 130 q 367 126 393 120 q 418 114 432 111 q 446 107 458 105 q 470 103 482 101 q 494 100 517 98 q 525 89 532 77 q 538 64 540 52 q 542 40 541 29 q 540 18 534 11 q 535 8 539 8 q 542 9 546 8 q 540 4 536 -2 q 532 -8 528 -14 q 524 -20 520 -24 q 515 -28 506 -29 q 476 -41 430 -31 q 384 -21 313 7 q 278 21 256 31 q 234 41 218 51 q 202 62 189 73 q 176 85 157 102 z m 297 437 q 286 421 273 408 q 260 396 248 382 q 235 369 226 353 q 216 337 212 315 q 246 319 283 334 q 320 350 354 363 q 350 394 333 412 q 315 431 297 437 z"},"2":{"x_min":0,"x_max":650,"ha":650,"o":"m 687 170 q 710 158 710 141 q 711 123 700 108 q 688 93 670 85 q 652 77 638 86 q 636 78 629 76 q 623 73 621 66 q 526 52 428 30 q 329 9 230 -2 q 154 1 104 21 q 83 38 73 64 q 62 91 61 120 q 59 149 62 177 q 66 205 74 226 q 125 290 180 349 q 235 408 306 454 q 326 479 354 498 q 381 516 403 538 q 374 549 342 549 q 310 549 278 543 q 247 538 220 530 q 192 522 172 519 q 156 526 135 527 q 114 528 94 535 q 82 545 78 561 q 73 576 72 593 q 71 609 71 625 q 71 640 67 649 q 75 662 82 675 q 88 688 97 698 q 143 711 198 719 q 254 728 311 727 q 367 726 420 712 q 473 699 514 669 q 519 642 534 625 q 550 609 572 601 q 583 581 591 561 q 599 541 602 519 q 582 467 546 431 q 511 396 475 366 q 455 350 433 338 q 410 326 394 311 q 390 307 389 300 q 388 294 384 291 q 366 275 345 263 q 323 251 306 235 q 293 225 285 212 q 276 199 263 189 q 280 184 297 185 q 314 186 333 188 q 351 191 370 194 q 389 197 409 196 q 438 206 472 213 q 506 221 540 219 q 569 230 596 236 q 623 241 647 238 q 660 233 667 221 q 673 208 687 203 q 684 192 685 188 q 687 183 687 170 z"},"{":{"x_min":0,"x_max":448,"ha":448,"o":"m 497 -31 q 515 -36 520 -45 q 525 -54 523 -64 q 521 -75 514 -86 q 507 -98 500 -106 q 491 -104 483 -110 q 476 -116 470 -124 q 443 -120 417 -123 q 390 -126 367 -129 q 363 -129 364 -133 q 364 -138 361 -139 q 333 -129 303 -131 q 272 -134 241 -141 q 209 -147 176 -156 q 144 -164 110 -165 q 98 -156 89 -143 q 81 -130 76 -115 q 70 -100 67 -83 q 63 -67 61 -53 q 60 -42 64 -36 q 68 -29 74 -24 q 88 32 106 89 q 125 146 142 201 q 146 216 149 229 q 151 242 155 256 q 135 270 113 286 q 92 303 72 314 q 73 322 62 332 q 52 342 40 343 q 41 356 34 367 q 26 377 22 391 q 15 422 28 449 q 42 477 70 482 q 79 478 84 479 q 89 479 97 474 q 110 487 129 500 q 147 513 165 508 q 166 512 168 514 q 171 516 173 517 q 176 518 178 520 q 181 521 181 526 q 195 530 209 536 q 224 541 237 549 q 245 578 252 605 q 260 633 267 661 q 273 688 280 719 q 286 750 292 786 q 293 804 290 818 q 288 827 286 833 q 284 839 279 843 q 287 845 291 855 q 295 866 291 871 q 307 876 325 877 q 343 879 360 880 q 378 882 394 884 q 409 887 421 894 q 470 896 522 898 q 575 900 621 902 q 637 897 659 897 q 682 896 704 894 q 726 891 743 881 q 761 872 768 849 q 782 847 789 841 q 795 836 797 828 q 799 819 798 810 q 797 801 797 791 q 772 772 729 765 q 687 758 640 755 q 593 752 549 752 q 505 752 479 748 q 466 746 453 745 q 440 743 430 741 q 424 713 414 668 q 403 623 393 579 q 383 535 375 502 q 366 469 363 465 q 360 461 347 455 q 334 449 314 440 q 295 431 270 418 q 244 405 217 390 q 227 381 245 371 q 263 360 280 350 q 298 340 312 331 q 325 322 327 317 q 328 312 327 303 q 326 295 324 286 q 321 277 319 271 q 317 264 317 263 q 303 217 292 184 q 282 151 274 123 q 266 94 257 65 q 248 37 235 -1 q 252 2 282 5 q 308 7 350 9 q 392 11 456 11 q 457 1 464 -3 q 471 -8 478 -11 q 485 -14 491 -18 q 497 -21 497 -31 z"},"9":{"x_min":0,"x_max":529,"ha":529,"o":"m 497 580 q 495 571 497 563 q 499 555 501 547 q 503 540 505 532 q 507 523 506 515 q 510 505 516 497 q 522 489 528 482 q 533 475 537 466 q 540 457 539 444 q 530 434 525 424 q 521 415 514 408 q 507 400 498 395 q 489 389 482 382 q 475 359 467 345 q 460 331 452 309 q 450 283 446 262 q 442 241 438 221 q 433 201 428 181 q 423 160 419 137 q 418 96 406 59 q 394 22 371 -11 q 354 -9 339 -11 q 325 -14 308 -17 q 300 -9 294 -1 q 288 6 280 12 q 281 61 286 100 q 290 140 297 178 q 305 216 314 256 q 324 297 335 348 q 321 349 303 346 q 285 344 265 340 q 245 337 225 333 q 205 328 188 325 q 177 326 166 326 q 154 326 145 327 q 135 328 126 332 q 118 335 112 343 q 97 339 86 344 q 75 350 67 359 q 60 368 54 380 q 49 392 43 401 q 38 434 41 459 q 43 484 50 506 q 58 527 69 547 q 80 567 92 589 q 117 614 148 641 q 179 667 215 688 q 251 708 292 720 q 333 731 380 728 q 419 699 445 660 q 472 621 497 580 z m 368 529 q 369 548 358 555 q 348 562 332 565 q 308 556 285 546 q 262 537 245 521 q 242 518 238 517 q 233 516 229 514 q 226 513 224 509 q 222 505 224 498 q 265 496 299 507 q 333 518 368 529 z"}," ":{"x_min":0,"x_max":370,"ha":370,"o":""},"I":{"x_min":0,"x_max":516,"ha":516,"o":"m 17 -12 q 3 -3 -5 11 q -14 24 -19 40 q -24 56 -28 73 q -31 90 -35 105 q -35 119 -29 125 q -23 132 -17 138 q 7 139 25 142 q 44 145 62 147 q 79 150 97 153 q 114 155 135 155 q 149 186 162 213 q 175 241 187 267 q 192 291 202 312 q 211 333 220 352 q 229 371 235 390 q 242 409 244 431 q 256 465 265 494 q 274 522 279 562 q 242 557 220 551 q 197 546 188 541 q 168 542 157 549 q 146 556 139 565 q 132 575 127 588 q 122 601 115 614 q 119 623 117 640 q 115 657 105 665 q 113 667 117 678 q 121 689 118 695 q 135 700 153 702 q 172 703 190 705 q 208 706 225 708 q 241 711 253 719 q 304 721 359 723 q 414 725 461 728 q 479 722 501 722 q 524 722 547 719 q 570 716 588 706 q 606 696 613 672 q 628 670 635 664 q 643 658 645 650 q 646 642 646 631 q 646 621 646 611 q 630 600 606 592 q 582 585 554 581 q 525 576 495 575 q 464 573 435 572 q 430 540 417 497 q 405 453 393 412 q 380 370 371 337 q 361 305 362 295 q 353 272 346 257 q 340 241 334 228 q 329 214 324 201 q 318 188 311 171 l 377 171 q 379 160 386 156 q 393 152 400 149 q 408 146 415 142 q 421 138 421 128 q 439 123 444 113 q 449 104 447 92 q 444 81 437 69 q 430 58 423 49 q 414 51 406 44 q 398 38 392 30 q 363 34 336 31 q 309 28 285 26 q 280 25 281 21 q 282 17 279 15 q 249 24 217 22 q 186 21 153 13 q 120 6 86 -2 q 52 -11 17 -12 z"},"H":{"x_min":0,"x_max":695,"ha":695,"o":"m 15 33 q 12 32 11 35 q 10 38 10 41 q 11 44 13 46 q 16 48 20 46 q 7 62 3 74 q 0 87 -10 105 q -7 108 -6 114 q -5 119 -3 124 q -2 129 0 131 q 3 134 7 130 q 5 141 7 147 q 9 154 11 160 q 14 166 15 172 q 16 178 12 186 q 30 211 36 241 q 42 271 43 295 q 52 304 58 318 q 64 333 67 349 q 70 364 70 379 q 70 395 66 403 q 67 407 71 408 q 74 408 79 407 q 86 446 88 494 q 91 542 98 586 q 105 631 122 665 q 139 698 175 708 q 182 684 193 665 q 204 646 217 629 q 230 611 244 594 q 258 576 270 555 q 269 532 265 503 q 262 474 256 443 q 251 413 246 385 q 240 356 235 337 q 236 332 242 331 q 248 329 244 319 q 272 326 303 333 q 334 339 364 345 q 394 352 422 360 q 451 369 477 382 q 482 429 491 475 q 500 521 493 567 q 499 572 503 579 q 507 586 515 588 q 509 610 510 635 q 511 660 518 682 q 525 703 540 719 q 555 735 576 740 q 589 722 599 700 q 608 679 618 657 q 628 635 639 615 q 650 596 668 582 q 671 548 673 512 q 675 477 676 438 q 667 395 656 353 q 645 312 640 265 q 632 256 627 244 q 622 231 618 219 q 613 207 607 195 q 602 184 593 176 q 597 162 594 150 q 592 138 601 121 q 603 91 593 71 q 584 51 568 37 q 552 22 531 14 q 510 6 489 -1 q 479 5 471 11 q 463 18 451 21 l 456 29 q 437 49 422 71 q 408 93 409 121 q 409 122 411 134 q 413 146 416 160 q 418 174 420 186 q 423 198 423 199 q 396 196 366 187 q 337 177 309 165 q 281 152 257 139 q 233 126 219 117 q 219 114 214 101 q 209 87 202 72 q 195 57 187 45 q 179 33 170 34 q 172 29 174 27 q 176 24 174 18 q 157 13 144 5 q 131 -3 117 -8 q 104 -14 87 -13 q 71 -13 49 -1 q 49 6 43 11 q 37 17 31 21 q 24 24 20 27 q 15 30 15 33 z"},"4":{"x_min":0,"x_max":582,"ha":582,"o":"m 538 487 q 544 471 550 458 q 556 445 572 436 q 568 413 570 398 q 572 384 565 362 q 552 348 533 339 q 514 330 494 324 q 474 317 454 311 q 434 304 417 292 q 404 253 390 215 q 376 177 365 131 q 367 126 372 124 q 377 122 380 118 q 375 104 379 96 q 383 88 390 81 q 396 74 404 67 q 411 61 414 52 q 410 43 409 34 q 408 25 408 17 q 407 8 405 -1 q 402 -10 396 -19 q 376 -26 356 -26 q 336 -26 319 -31 q 299 -26 285 -11 q 271 4 262 23 q 253 43 248 63 q 243 84 240 100 q 246 110 237 109 q 233 123 238 136 q 243 148 240 155 q 242 180 248 207 q 254 233 262 268 q 249 271 234 273 q 219 275 205 277 q 190 278 179 279 q 167 280 161 280 q 146 284 136 292 q 125 301 116 311 q 107 321 99 332 q 91 343 82 353 q 79 387 72 422 q 65 457 60 490 q 54 523 51 553 q 48 582 54 605 q 63 620 73 634 q 83 647 97 657 q 107 654 114 647 q 120 640 125 631 q 131 623 137 616 q 144 608 154 605 q 158 587 167 571 q 175 555 182 538 q 189 521 195 503 q 200 485 200 463 q 210 448 221 445 q 232 441 245 442 q 258 443 271 444 q 284 445 298 441 q 301 446 308 447 q 314 447 319 450 q 325 452 326 460 q 326 468 334 469 q 332 485 334 501 q 337 518 339 532 q 342 547 342 561 q 343 574 338 588 q 348 606 350 632 q 353 658 356 683 q 359 707 369 727 q 378 747 401 755 q 460 705 483 621 q 474 580 472 545 q 471 510 472 475 q 488 479 506 482 q 524 485 538 487 z"},"~":{"x_min":0,"x_max":581,"ha":581,"o":"m 32 214 q 18 215 9 221 q 0 228 0 238 q 0 248 9 256 q 15 271 21 280 q 27 289 34 299 q 44 312 54 326 q 63 340 75 354 q 81 358 85 360 q 96 368 106 375 q 117 383 131 388 q 155 396 179 397 q 202 397 219 396 q 232 396 245 394 q 257 393 266 391 q 280 384 290 378 q 299 372 308 364 q 318 358 325 352 q 331 346 336 339 q 339 335 348 326 q 356 317 369 317 q 381 317 389 328 q 397 339 406 347 q 414 367 432 378 q 439 382 445 383 q 450 384 455 385 q 458 386 461 386 q 464 387 466 388 l 477 389 l 489 389 q 506 394 519 394 q 533 393 542 386 q 551 380 551 369 q 551 358 542 352 q 536 336 530 327 q 523 318 517 309 q 507 295 497 281 q 487 268 475 254 q 471 249 465 247 q 455 239 444 232 q 434 225 420 220 q 395 211 372 210 q 349 210 332 211 q 318 212 306 213 q 294 215 284 217 q 271 224 261 229 q 251 235 242 242 q 231 249 226 255 q 220 262 215 269 q 212 272 202 282 q 192 291 182 290 q 171 289 162 279 q 152 269 144 261 q 138 241 119 229 q 111 226 106 225 q 101 224 96 223 q 93 222 90 221 q 87 221 85 220 l 74 219 l 62 219 q 45 214 32 214 z"},"D":{"x_min":0,"x_max":589,"ha":589,"o":"m 96 -11 q 67 -4 52 12 q 37 28 30 50 q 22 72 20 99 q 18 125 15 153 q 19 166 25 175 q 31 184 30 199 q 41 230 50 260 q 59 289 62 320 q 67 329 73 332 q 81 388 75 446 q 69 505 56 555 q 57 565 59 571 q 61 576 59 580 q 57 589 64 589 q 72 589 80 589 q 80 606 74 624 q 67 641 62 663 q 69 681 72 697 q 75 714 83 728 q 114 718 145 705 q 175 692 204 680 q 233 668 262 657 q 290 646 317 639 q 359 608 404 579 q 448 549 485 513 q 521 478 546 432 q 570 386 574 323 q 572 317 571 313 q 570 310 569 306 q 568 302 568 297 q 568 292 568 283 q 533 222 479 180 q 426 138 362 105 q 299 73 230 46 q 161 20 96 -11 z m 191 543 q 183 543 179 539 q 190 495 196 456 q 202 417 203 378 q 203 339 198 298 q 193 257 185 209 q 197 210 207 214 q 217 218 227 223 q 237 228 249 231 q 260 235 274 236 q 278 244 285 249 q 291 253 296 258 q 320 268 345 278 q 369 289 390 303 q 410 316 427 334 q 443 352 454 376 q 446 391 435 401 q 424 411 412 421 q 399 432 388 443 q 377 454 370 469 q 354 471 343 477 q 331 483 320 490 q 310 496 297 502 q 285 508 269 509 q 243 522 223 528 q 202 533 191 543 z"},"^":{"x_min":0,"x_max":519,"ha":519,"o":"m 449 453 q 452 433 451 410 q 449 387 449 366 q 449 346 452 323 q 454 300 456 278 q 458 257 458 239 q 458 222 453 212 q 447 201 438 194 q 429 188 421 180 q 401 182 390 196 q 378 210 380 223 q 352 240 339 273 q 327 306 323 344 q 318 382 316 418 q 314 455 307 480 q 273 432 251 395 q 229 357 205 323 q 182 289 153 253 q 124 218 78 174 q 68 175 63 177 q 58 180 53 182 q 48 185 42 186 q 36 187 25 186 q 21 194 20 198 q 18 202 16 206 q 15 210 12 216 q 10 223 5 234 q 3 237 3 242 q 4 246 4 250 q 5 254 4 256 q 4 258 0 256 q 3 269 10 279 q 17 290 16 304 q 36 331 61 360 q 86 389 111 419 q 136 450 158 484 q 181 518 197 556 q 201 556 204 558 q 206 561 208 563 q 210 566 212 569 q 214 572 218 572 q 220 597 236 618 q 252 640 269 654 q 266 666 268 672 q 271 678 270 689 q 283 726 310 738 q 337 750 362 733 q 373 726 379 714 q 386 703 397 700 q 396 685 400 669 q 405 654 412 653 q 415 634 420 612 q 425 591 430 569 q 435 547 438 525 q 440 504 439 486 q 439 478 443 470 q 447 463 449 453 z"},"0":{"x_min":0,"x_max":687,"ha":687,"o":"m 219 -17 q 181 -22 148 -13 q 116 -3 91 19 q 66 40 48 69 q 29 99 18 132 q 10 201 22 258 q 35 314 59 362 q 83 410 113 452 q 144 493 172 531 q 178 528 182 532 q 186 535 189 540 q 192 545 196 550 q 199 555 205 557 q 209 565 215 572 q 221 578 227 584 q 233 590 239 596 q 245 602 249 610 q 258 612 265 618 q 271 623 277 629 q 283 635 290 640 q 296 646 305 648 l 305 661 q 324 672 333 684 q 342 696 354 715 q 364 717 370 716 q 376 716 387 718 q 396 734 402 743 q 409 752 423 763 q 436 755 451 752 q 467 750 478 737 q 479 725 484 718 q 489 711 496 706 q 503 700 509 694 q 515 688 517 677 q 521 677 522 679 q 523 681 527 680 q 529 671 531 666 q 533 661 535 657 q 537 652 540 648 q 542 644 544 636 q 539 624 536 610 q 532 597 521 592 q 521 584 527 583 q 532 582 533 575 q 533 565 530 560 q 556 512 576 459 q 596 407 621 360 q 619 346 623 332 q 626 318 630 305 q 635 292 639 279 q 644 267 646 253 q 647 235 646 215 q 645 195 639 177 q 634 158 625 143 q 616 127 604 119 q 603 120 594 114 q 585 107 574 98 q 562 88 551 76 q 539 64 530 56 q 519 48 504 44 q 490 41 476 37 q 464 29 448 21 q 432 13 415 7 q 397 1 381 -2 q 364 -6 352 -4 q 319 -18 290 -22 q 260 -26 219 -17 z m 240 353 q 232 329 222 311 q 211 292 201 272 q 190 253 183 231 q 176 209 175 180 q 190 163 212 159 q 234 155 257 158 q 280 161 303 166 q 325 171 344 172 q 344 181 351 180 q 383 184 412 204 q 440 224 472 244 q 476 257 482 266 q 488 274 488 291 q 484 302 483 307 q 482 312 482 325 q 462 362 447 406 q 432 449 412 486 q 410 481 405 477 q 400 472 395 479 q 390 459 377 461 q 365 463 354 473 q 327 444 300 417 q 272 391 251 355 q 247 353 246 354 q 245 355 240 353 z"},"F":{"x_min":0,"x_max":575,"ha":575,"o":"m 43 198 q 14 215 -2 245 q -18 275 -20 303 q -17 326 -7 339 q 2 353 15 361 q 27 369 41 374 q 55 378 67 381 l 82 376 q 87 371 92 367 q 98 363 103 359 q 112 363 115 371 q 117 379 120 387 q 123 397 127 408 q 131 419 137 430 q 136 438 138 445 q 140 452 142 457 q 136 462 133 462 q 131 463 125 465 q 122 465 119 465 q 116 466 112 467 q 98 478 93 485 q 89 492 84 500 q 79 508 75 514 q 71 520 66 524 l 55 532 l 61 544 q 62 546 62 549 q 62 553 59 560 q 56 572 58 578 l 60 590 q 69 603 70 604 l 80 614 q 103 620 126 627 q 149 635 172 643 q 194 650 218 658 q 241 666 265 672 q 272 679 282 680 q 291 682 299 683 q 306 683 312 684 q 317 685 320 688 q 337 694 353 698 q 382 706 430 717 q 478 728 537 732 l 558 733 q 563 732 569 733 q 575 733 581 733 q 632 733 648 702 q 658 697 666 690 q 674 683 681 676 q 686 671 689 667 q 693 664 696 662 l 704 654 q 715 631 708 608 q 702 597 695 595 q 688 593 682 591 l 669 584 q 656 585 650 585 q 644 585 636 585 q 606 585 568 582 q 529 578 489 572 q 449 565 411 556 q 373 547 345 536 q 337 530 324 525 q 321 524 315 521 q 316 513 315 505 q 314 498 312 491 q 312 486 311 481 q 311 476 310 470 q 289 445 290 412 l 285 402 q 281 398 279 391 q 276 384 278 376 l 282 364 q 302 366 321 369 q 340 371 361 374 q 389 379 417 382 q 444 386 475 386 l 513 386 l 504 377 l 515 376 l 509 360 q 516 357 519 356 q 522 354 525 353 l 532 343 q 537 340 541 333 q 545 327 546 316 l 543 307 l 497 248 l 491 240 l 481 243 q 463 244 446 239 q 438 237 430 235 q 421 232 412 232 q 389 229 373 226 q 357 224 342 222 q 320 218 300 214 q 280 211 263 204 q 252 203 250 204 q 248 204 246 204 q 236 204 227 201 q 217 198 208 195 q 202 190 200 185 q 198 180 196 174 q 194 167 191 161 q 188 154 183 147 l 184 130 q 175 128 175 127 q 175 127 174 127 q 174 119 171 112 q 169 105 167 100 q 165 96 164 93 q 163 90 163 87 q 173 69 168 47 q 164 28 153 14 q 143 0 128 -8 q 112 -10 105 -7 q 98 -4 90 -1 q 85 1 80 2 q 75 4 70 5 l 59 15 q 56 21 52 26 q 48 31 44 37 q 39 44 34 51 q 29 58 25 66 q 19 101 23 124 q 27 146 35 169 q 37 177 39 184 q 41 190 43 198 z"},"`":{"x_min":0,"x_max":755,"ha":755,"o":"m 299 609 q 291 621 291 632 q 290 643 293 653 q 296 664 302 675 q 308 687 313 700 q 321 704 331 714 q 341 725 342 735 q 347 732 356 738 q 365 743 367 749 q 378 743 387 734 q 396 725 405 716 q 414 707 423 700 q 432 692 442 690 q 466 664 493 638 q 520 612 542 588 q 546 574 556 567 q 566 561 575 553 q 583 545 585 534 q 587 523 574 503 q 580 493 579 485 q 578 478 574 471 q 569 464 562 457 q 556 450 549 443 q 525 444 500 458 q 475 472 451 490 q 427 508 406 527 q 386 546 371 559 q 343 584 325 596 q 307 607 299 609 z"},"k":{"x_min":0,"x_max":646,"ha":646,"o":"m 589 35 q 542 33 506 37 q 471 41 437 56 q 435 57 433 61 q 431 64 429 66 q 423 69 415 69 q 406 68 400 70 q 393 74 376 85 q 359 97 346 106 q 328 120 312 134 q 297 147 285 163 q 282 167 277 167 q 272 168 269 170 q 240 152 221 126 q 201 100 184 72 q 166 45 146 21 q 127 -4 97 -17 q 88 -17 81 -14 q 74 -11 68 -6 q 62 -2 57 2 q 51 6 44 8 q 44 20 40 29 q 35 39 31 48 q 26 57 24 65 q 22 73 28 81 q 22 87 11 94 q 17 100 16 104 q 16 109 14 114 q 12 119 10 125 q 9 131 13 137 q 18 137 24 139 q 19 146 19 148 q 20 149 17 152 q 15 158 19 160 q 22 161 26 163 q 30 211 43 252 q 56 293 71 331 q 87 369 102 408 q 117 447 127 492 q 138 503 144 518 q 150 532 158 547 q 165 562 174 576 q 184 590 200 599 q 214 598 225 591 q 235 585 251 586 q 254 581 256 576 q 259 571 263 566 l 277 569 q 288 561 296 547 q 305 534 308 520 q 311 505 307 492 q 303 479 288 471 q 289 466 289 463 q 288 461 287 459 q 286 457 286 455 q 286 453 289 449 q 270 435 260 408 q 250 382 249 361 q 261 373 275 384 q 289 396 304 406 q 319 417 333 427 q 348 437 359 446 q 392 476 421 494 q 451 512 484 534 q 492 536 497 535 q 501 533 506 531 q 506 537 502 538 q 499 539 500 546 q 515 550 525 555 q 536 561 549 565 q 558 557 565 547 q 573 538 587 536 q 592 525 599 520 q 605 515 612 510 q 619 505 625 498 q 630 491 631 477 q 627 470 623 462 q 618 454 614 443 q 595 426 575 412 q 555 398 534 386 q 514 373 492 360 q 471 348 448 330 q 443 323 436 318 q 429 312 421 307 q 413 302 406 296 q 399 290 396 282 q 393 281 390 281 q 387 281 384 280 q 381 273 375 270 q 368 266 366 259 q 381 228 404 211 q 428 194 457 187 q 486 180 521 179 q 555 179 592 179 q 596 180 595 183 q 595 187 600 186 q 623 178 636 164 q 648 149 666 136 q 664 99 644 74 q 623 50 589 35 z"},"u":{"x_min":0,"x_max":585,"ha":585,"o":"m 576 556 q 578 534 583 519 q 588 503 594 488 q 599 475 603 461 q 607 448 609 430 q 602 404 598 383 q 595 361 591 338 q 575 304 561 277 q 546 251 537 231 q 532 227 529 220 q 525 214 521 207 q 520 204 517 198 q 514 192 512 190 l 492 197 l 488 173 l 475 169 l 465 157 q 446 125 426 103 q 405 81 379 64 q 354 47 321 32 q 288 18 247 0 q 230 2 218 2 q 206 3 195 4 q 177 4 149 7 q 146 15 141 18 q 135 21 130 21 q 113 28 105 43 q 97 59 89 76 q 84 87 79 96 q 74 105 68 115 l 85 120 l 63 144 q 62 146 59 149 q 56 151 54 154 l 53 170 q 50 237 50 293 q 51 350 65 394 l 65 404 q 68 426 71 440 q 74 454 76 467 q 79 488 85 507 q 99 510 105 518 q 112 526 117 533 q 131 534 136 529 q 141 524 146 514 q 150 505 158 494 q 165 483 180 478 q 182 470 185 461 q 188 453 192 443 q 200 427 207 409 q 213 391 214 374 q 204 355 199 331 q 193 307 192 282 q 190 257 193 234 q 195 211 201 195 l 207 183 l 224 185 q 253 192 277 202 q 301 211 321 224 q 342 236 360 253 q 379 271 399 293 q 420 315 435 344 q 450 373 460 404 q 471 436 476 466 q 481 497 483 524 q 500 530 500 548 l 498 559 q 494 564 498 572 q 504 591 525 601 q 541 591 553 579 q 565 567 576 556 z"},"]":{"x_min":0,"x_max":403,"ha":403,"o":"m 386 855 q 398 854 404 848 q 410 843 412 834 q 414 826 413 817 q 412 808 412 798 q 402 758 391 706 q 379 653 365 595 q 351 537 335 478 q 319 419 306 368 q 293 317 284 280 q 275 243 274 229 q 258 180 248 146 q 237 111 228 81 q 219 50 209 17 q 199 -16 184 -61 q 182 -72 174 -84 q 167 -97 160 -106 q 150 -104 143 -110 q 136 -116 130 -124 q 103 -120 76 -123 q 50 -126 27 -129 q 23 -129 24 -133 q 24 -138 21 -139 q -8 -129 -38 -131 q -68 -134 -100 -141 q -131 -147 -164 -156 q -197 -164 -230 -165 q -243 -156 -251 -143 q -259 -130 -264 -115 q -270 -100 -273 -83 q -276 -67 -280 -53 q -280 -39 -274 -33 q -269 -27 -263 -21 q -240 -20 -222 -17 q -204 -15 -188 -12 q -171 -10 -154 -7 q -137 -5 -116 -5 q -110 -1 -92 1 q -74 4 -51 6 q -27 8 -1 9 q 25 10 49 10 q 61 51 74 90 q 88 130 99 169 q 110 217 124 257 q 137 298 149 336 q 161 375 171 413 q 182 451 188 493 q 197 528 206 557 q 215 586 223 615 q 230 644 238 677 q 245 710 253 754 q 216 758 183 757 q 149 757 130 754 q 83 746 58 740 q 32 733 22 729 q 6 729 -3 736 q -13 742 -19 752 q -24 762 -29 773 q -33 785 -39 798 q -36 807 -38 823 q -39 839 -47 847 q -41 849 -38 860 q -34 871 -37 876 q -22 881 -7 882 q 9 884 24 885 q 40 887 54 889 q 68 892 79 898 q 122 900 168 903 q 215 906 256 908 q 271 903 290 903 q 310 902 329 899 q 349 896 364 888 q 380 879 386 855 z"},"U":{"x_min":0,"x_max":695,"ha":695,"o":"m 70 483 q 68 496 65 499 q 72 517 76 534 q 79 551 81 566 q 83 580 85 592 q 88 604 92 614 q 108 618 117 628 q 125 639 130 646 q 147 647 153 642 q 158 636 165 622 q 170 611 179 599 q 188 587 205 580 q 208 569 212 560 q 216 550 221 539 q 229 519 237 497 q 245 475 246 455 q 234 433 228 403 q 222 374 220 344 q 219 314 222 287 q 225 260 231 241 l 237 226 l 259 228 q 294 236 322 248 q 351 259 375 274 q 399 290 422 310 q 444 330 469 357 q 492 385 511 419 q 529 454 542 491 q 554 528 561 565 q 567 603 569 635 q 588 644 590 663 l 587 676 q 584 681 584 685 q 585 689 587 693 q 595 716 620 727 q 638 715 653 701 q 668 688 681 674 q 683 647 688 628 q 694 609 701 592 q 708 575 713 560 q 719 544 721 521 q 711 492 707 466 q 702 440 698 412 l 696 401 q 679 371 662 339 q 645 308 634 284 q 628 278 624 271 q 619 263 615 255 q 613 252 610 245 q 606 238 604 235 l 580 244 l 574 214 l 559 210 l 547 196 q 524 157 500 131 q 475 104 444 84 q 413 63 375 45 q 336 27 286 7 q 267 10 252 10 q 238 11 225 12 q 211 12 198 13 q 186 14 169 16 q 165 24 158 28 q 151 32 146 32 q 126 42 116 60 q 106 77 96 99 q 91 110 85 122 q 80 134 72 145 l 92 150 l 66 180 q 63 183 60 186 q 57 188 54 192 l 54 211 q 50 291 50 359 q 51 427 68 479 z"},"o":{"x_min":0,"x_max":629,"ha":629,"o":"m 569 293 q 568 281 571 271 q 574 260 579 250 q 583 239 587 229 q 591 218 593 207 q 595 193 593 177 q 591 161 586 146 q 581 131 573 119 q 565 106 555 101 q 541 83 521 73 q 502 63 485 50 q 475 43 461 40 q 448 37 435 34 q 424 28 409 22 q 395 16 379 10 q 363 5 348 2 q 332 0 320 1 q 291 -10 263 -13 q 235 -17 198 -9 q 163 -14 133 -6 q 104 2 81 19 q 58 36 41 60 q 23 84 13 110 q 5 166 17 211 q 28 257 50 295 q 72 334 101 367 q 129 399 155 431 q 161 429 165 431 q 168 434 171 438 q 174 442 177 446 q 181 450 186 451 q 192 466 206 473 q 219 480 227 494 q 235 496 241 500 q 247 504 252 509 q 258 514 264 518 q 270 522 277 524 l 277 535 q 295 543 303 553 q 312 563 323 578 q 332 579 337 579 q 343 579 354 581 q 361 595 368 602 q 374 608 387 616 q 398 610 413 608 q 427 606 438 596 q 438 586 443 581 q 448 575 454 571 q 460 566 465 562 q 471 557 473 548 q 477 547 478 549 q 479 551 483 550 q 486 536 490 532 q 494 527 498 515 q 493 505 491 495 q 488 484 479 479 q 478 473 482 472 q 487 472 488 467 q 489 458 485 454 q 509 416 527 374 q 546 331 569 293 z m 447 200 q 451 211 458 218 q 464 225 465 238 q 460 246 459 250 q 458 255 458 265 q 437 295 421 330 q 405 364 386 395 q 384 391 379 387 q 374 383 368 389 q 366 381 361 377 q 356 374 351 375 q 345 375 338 377 q 332 380 327 384 q 299 361 271 340 q 242 318 220 290 q 216 288 215 289 q 214 289 209 287 q 201 269 190 253 q 179 238 168 223 q 157 207 149 189 q 142 172 141 148 q 157 135 180 132 q 202 129 226 131 q 250 133 273 137 q 296 142 315 142 q 356 151 386 167 q 415 184 447 200 z"},"N":{"x_min":0,"x_max":685,"ha":685,"o":"m 177 92 q 167 84 165 72 q 163 60 160 48 q 157 36 150 28 q 143 20 124 21 q 120 16 123 15 q 125 14 127 6 q 113 8 107 4 q 102 0 93 -2 q 70 5 55 23 q 40 41 29 62 q 18 84 9 106 q 1 129 -8 146 q -8 149 -4 149 q -1 148 2 148 q -3 158 -5 170 q -8 183 -15 190 q 14 251 46 317 q 78 383 111 451 q 144 519 176 587 q 209 656 239 723 q 267 713 292 700 q 318 687 340 669 q 361 651 376 628 q 392 605 396 576 q 395 570 392 572 q 389 574 387 570 q 392 564 392 562 q 393 560 392 557 q 391 555 391 551 q 391 547 396 540 q 391 541 389 539 q 387 536 382 538 q 387 524 385 517 q 383 509 379 502 q 375 496 373 489 q 370 481 374 469 q 370 469 369 467 q 367 466 366 464 q 365 462 364 460 q 362 459 358 460 q 361 435 360 409 q 359 383 358 356 q 357 329 358 301 q 359 272 366 242 q 408 267 434 306 q 460 345 475 393 q 490 440 499 495 q 507 550 516 606 q 526 617 533 633 q 539 648 543 665 q 548 682 552 699 q 557 716 564 729 q 582 728 594 719 q 606 711 617 701 q 628 690 640 682 q 651 673 669 670 q 683 650 694 632 q 706 614 710 592 q 704 582 701 570 q 698 559 695 547 q 691 535 686 525 q 680 516 669 509 q 666 479 660 454 q 654 429 649 404 q 645 380 641 354 q 637 327 638 296 q 629 268 618 238 q 607 208 603 183 q 584 168 573 146 q 562 125 551 104 q 546 100 545 102 q 544 104 536 105 q 537 97 533 94 q 528 92 533 80 q 517 72 504 60 q 491 47 476 36 q 461 25 441 22 q 421 19 389 30 q 341 65 303 111 q 265 157 242 220 q 232 217 228 207 q 223 197 219 187 q 215 176 211 167 q 207 158 199 158 q 197 149 192 142 q 187 135 182 127 q 177 120 174 111 q 172 103 177 92 z"},"+":{"x_min":0,"x_max":579,"ha":579,"o":"m 498 291 q 513 289 519 284 q 525 279 527 272 q 529 265 529 256 q 528 247 528 238 q 514 229 492 222 q 470 216 443 212 q 417 209 388 208 q 359 206 331 205 q 326 178 319 147 q 312 116 297 72 q 283 42 266 30 q 248 18 229 18 q 210 18 190 27 q 171 36 153 48 q 151 61 152 78 q 153 96 155 116 q 157 136 161 156 q 164 176 167 195 q 136 190 117 187 q 98 183 90 180 q 71 181 61 187 q 50 192 43 201 q 36 209 31 220 q 26 230 20 242 q 23 250 21 265 q 19 279 10 287 q 18 288 21 298 q 25 309 21 313 q 37 317 55 319 q 73 320 91 321 q 108 322 124 325 q 140 327 151 333 q 165 333 177 333 q 189 334 203 334 q 206 347 202 355 q 198 364 200 371 q 202 376 208 377 q 213 379 214 384 q 218 396 216 404 q 214 411 220 423 q 225 431 233 447 q 241 464 239 482 q 249 489 257 498 q 266 507 275 514 q 284 521 295 527 q 307 532 323 532 q 332 521 336 512 q 340 502 344 493 q 348 484 354 477 q 360 469 373 462 q 373 453 370 440 q 367 428 365 415 q 363 402 364 393 q 365 383 374 379 q 370 368 367 358 q 363 348 360 338 q 377 335 398 334 q 420 334 439 331 q 459 327 475 319 q 491 311 498 291 z"},"G":{"x_min":0,"x_max":789,"ha":789,"o":"m 0 231 q 0 242 3 251 q 6 260 4 273 q 34 338 73 393 q 111 448 165 490 q 174 497 179 504 q 185 512 190 519 q 195 525 202 531 q 209 536 220 538 q 244 566 278 590 q 312 613 350 635 q 387 656 424 679 q 462 701 492 728 q 503 721 509 723 q 516 726 522 724 q 531 705 545 698 q 560 690 575 683 q 590 676 603 666 q 616 655 623 638 q 616 638 617 633 q 617 628 619 622 q 621 616 621 611 q 621 606 612 606 q 612 600 619 600 q 626 600 626 593 q 626 587 624 583 q 621 580 623 572 q 600 557 571 542 q 542 528 510 513 q 479 497 446 479 q 413 461 381 438 q 349 414 316 386 q 283 357 253 326 q 223 294 196 260 q 170 227 151 194 q 153 189 157 186 q 160 182 162 177 q 199 175 231 177 q 264 180 296 173 q 300 176 301 181 q 302 186 307 188 q 373 194 431 209 q 488 225 548 240 q 530 247 517 251 q 511 257 517 261 q 523 266 527 271 q 512 279 501 294 q 491 309 489 332 q 496 338 496 346 q 496 354 489 358 q 484 360 483 358 q 482 356 482 354 q 481 353 480 351 q 479 349 475 351 q 476 361 479 368 q 483 375 485 385 l 566 438 q 579 429 598 418 q 616 407 637 396 q 657 386 679 375 q 700 363 719 353 q 736 345 749 333 q 762 322 773 310 q 785 298 797 286 q 809 274 825 267 q 823 251 827 241 q 831 231 829 218 q 811 185 784 162 q 758 139 725 122 q 692 105 655 94 q 618 83 579 73 q 540 62 500 51 q 461 40 423 25 q 406 25 395 24 q 383 23 372 21 q 361 20 351 18 q 340 16 327 15 q 322 16 321 13 q 319 10 316 8 q 297 5 281 5 q 266 5 255 5 q 241 5 227 1 q 212 -3 199 -2 q 111 2 62 61 q 12 119 7 222 q 8 227 5 228 q 2 229 0 231 z"},"q":{"x_min":0,"x_max":625,"ha":625,"o":"m 411 48 q 352 21 284 5 q 217 -12 141 -17 q 100 -5 66 14 q 33 33 11 64 q 12 78 10 88 q 8 99 5 107 q 3 116 2 126 q 2 136 5 148 q 3 156 0 163 q -3 170 -5 178 q -3 215 10 245 q 22 274 41 299 q 60 323 82 344 q 104 365 124 385 q 129 380 131 383 q 133 387 141 385 q 141 390 145 397 q 149 404 155 411 q 161 417 168 421 q 176 425 183 424 q 191 439 208 451 q 225 462 242 474 q 259 485 272 499 q 286 513 289 533 l 306 533 q 295 549 296 564 q 297 580 306 590 q 315 601 332 603 q 349 605 370 595 q 380 593 383 598 q 386 604 393 604 q 430 588 459 564 q 489 541 513 511 q 511 506 505 505 q 500 504 506 498 q 534 463 556 423 q 578 384 597 340 q 602 307 600 274 q 598 241 590 204 q 576 176 556 155 q 535 134 519 109 l 533 77 q 532 71 536 63 q 539 56 542 47 q 546 39 548 32 q 550 24 547 20 q 550 15 558 17 q 555 16 553 10 q 551 5 561 7 q 559 -2 553 -13 q 548 -24 539 -35 q 529 -45 517 -52 q 504 -60 489 -60 q 473 -51 463 -43 q 454 -35 441 -22 z m 221 280 q 186 251 156 212 q 127 173 109 126 q 117 122 127 121 q 138 120 146 118 q 193 132 243 144 q 292 155 338 172 q 319 194 303 216 q 286 238 275 259 q 278 264 280 271 q 282 277 285 284 q 288 290 294 295 q 300 300 310 300 q 324 294 344 293 q 364 292 381 289 q 397 277 409 261 q 421 245 434 229 q 451 245 464 265 q 477 284 484 310 q 479 322 472 339 q 465 355 455 371 q 445 386 434 398 q 422 410 408 415 q 401 416 399 413 q 397 409 390 411 q 346 380 302 349 q 258 318 221 280 z"},"d":{"x_min":0,"x_max":497,"ha":497,"o":"m 481 264 q 480 259 479 255 q 479 252 478 249 q 477 246 477 242 q 477 237 477 230 q 447 179 403 144 q 358 108 305 82 q 252 55 194 33 q 137 11 82 -15 q 59 -9 46 5 q 34 19 28 37 q 21 55 19 77 q 17 99 15 122 q 18 133 23 140 q 28 147 28 161 q 36 187 44 211 q 52 235 54 261 q 57 269 64 271 q 69 318 65 367 q 61 415 49 457 q 50 467 51 471 q 53 476 51 478 q 50 485 56 485 q 62 485 69 485 q 69 500 64 515 q 59 529 54 548 q 61 562 62 577 q 64 591 71 602 q 124 585 172 562 q 221 538 268 527 q 303 502 340 477 q 377 452 407 422 q 438 393 458 354 q 479 316 481 264 z m 250 210 q 271 218 291 227 q 311 235 328 247 q 345 258 358 272 q 372 287 381 308 q 375 319 365 329 q 355 338 346 346 q 336 354 327 363 q 317 372 312 385 q 299 387 289 392 q 279 397 270 403 q 261 408 250 413 q 240 418 227 419 q 205 430 188 435 q 171 439 162 447 q 155 447 151 444 q 161 407 166 375 q 171 342 171 309 q 172 276 168 242 q 164 208 157 168 q 167 169 175 172 q 184 176 192 180 q 200 184 209 187 q 219 190 231 191 q 234 197 240 201 q 245 205 250 210 z"},"1":{"x_min":0,"x_max":322,"ha":322,"o":"m 175 707 q 186 686 203 672 q 220 659 236 646 q 257 607 262 561 q 267 514 272 458 q 272 413 267 374 q 261 334 251 296 q 242 259 230 222 q 219 185 208 144 q 194 129 187 102 q 180 75 186 50 q 173 34 160 20 q 147 5 132 -8 q 126 -2 117 -1 q 107 -1 98 -1 q 88 -2 80 -3 q 71 -5 67 -4 q 62 4 54 13 q 46 21 40 31 q 33 41 30 50 q 26 60 31 68 q 31 79 20 79 q 22 124 34 167 q 46 211 61 252 q 75 294 89 335 q 104 376 111 416 q 118 456 115 496 q 111 536 92 577 q 92 591 91 600 q 91 609 90 617 q 90 624 89 631 q 88 638 85 646 q 90 659 92 671 q 95 683 92 692 q 93 699 96 704 q 99 708 103 712 q 106 717 110 721 q 113 726 114 732 l 136 732 q 146 724 154 716 q 162 709 175 707 z"},"5":{"x_min":0,"x_max":580,"ha":580,"o":"m 616 656 q 622 648 628 637 q 634 625 629 615 q 646 598 657 572 q 667 547 654 517 q 632 509 615 504 q 598 500 578 494 q 541 492 532 491 q 522 490 518 489 q 513 488 502 486 q 492 483 458 479 q 458 482 458 483 q 457 484 456 483 q 454 482 453 481 q 451 480 448 481 q 429 475 409 471 q 390 468 370 465 q 351 462 331 458 q 312 453 291 443 q 293 438 297 436 q 301 434 305 431 q 310 429 313 426 q 317 423 319 418 q 347 411 365 396 q 383 381 397 362 q 412 343 426 323 q 439 304 458 288 q 458 282 461 279 q 464 276 462 269 q 479 246 489 215 q 499 184 493 143 q 480 111 463 89 q 445 67 417 44 q 395 34 373 29 q 352 23 335 13 q 327 18 321 17 q 314 17 310 19 q 287 9 262 5 q 236 2 208 16 q 188 15 167 17 q 146 20 128 26 q 110 33 98 45 q 86 58 82 76 q 60 95 53 123 q 46 150 60 177 q 65 179 69 180 q 72 182 78 187 q 130 182 184 178 q 238 175 300 187 q 302 194 307 198 q 312 201 319 204 q 326 207 332 210 q 338 213 341 219 q 341 225 338 227 q 335 229 332 232 q 329 234 327 237 q 324 240 325 247 q 312 247 295 256 q 278 265 269 275 q 226 283 183 305 q 141 326 101 345 q 94 356 85 367 q 77 377 69 388 q 62 399 56 411 q 51 423 50 437 q 51 452 52 466 q 53 480 54 495 q 55 509 57 524 q 59 539 62 557 q 104 614 167 654 q 230 693 297 719 q 308 708 318 696 q 329 684 341 673 q 353 662 366 654 q 379 646 396 646 q 406 648 412 649 q 418 650 423 650 q 428 650 436 650 q 443 650 458 652 q 473 654 486 654 q 500 654 512 655 q 536 657 547 659 q 559 661 562 662 q 566 663 566 664 q 566 664 570 664 q 573 663 583 661 q 593 659 616 656 z"}}}
